<?xml version="1.0" encoding="utf-8"?>
<!-- Generator: Adobe Illustrator 24.1.2, SVG Export Plug-In . SVG Version: 6.00 Build 0)  -->
<svg version="1.1" id="Слой_1" xmlns="http://www.w3.org/2000/svg" xmlns:xlink="http://www.w3.org/1999/xlink" x="0px" y="0px"
	 viewBox="0 0 54 54" style="enable-background:new 0 0 54 54;" xml:space="preserve">
<style type="text/css">
	.st0{fill:#E3072B;}
	.st1{fill:#FFFFFF;}
</style>
<g>
	<g id="XMLID_27_">
		<path class="st0" d="M27,1.1C16.3,1.1,7.6,9.8,7.6,20.5c0,16.2,17.7,32.4,19.4,32.4c1.4,0,19.4-16.2,19.4-32.4
			C46.4,9.8,37.7,1.1,27,1.1z"/>
		<path class="st1" d="M27,54C24.2,54,6.5,37,6.5,20.5C6.5,9.2,15.7,0,27,0s20.5,9.2,20.5,20.5C47.5,37,29.3,54,27,54z M26.8,51.9
			L26.8,51.9L26.8,51.9z M27.2,51.9L27.2,51.9L27.2,51.9z M27,2.2c-10.1,0-18.4,8.2-18.4,18.4C8.6,35.1,24,50.3,27,51.8
			c2.6-1.6,18.4-16.4,18.4-31.3C45.4,10.4,37.1,2.2,27,2.2z"/>
	</g>
	<g>
		<path class="st1" d="M18.9,30.2H29c0.5,0,0.8-0.4,0.8-0.8c0-0.5-0.4-0.8-0.8-0.8l0,0H29v-6.2h1c0.4,0,0.7,0.3,0.7,0.7l0,0v2.3
			c0,1.5,1.2,2.6,2.6,2.6c1.5,0,2.6-1.2,2.6-2.6v-7.5c0-0.2-0.1-0.5-0.3-0.7L33.5,15c-0.4-0.4-1-0.4-1.4,0c-0.4,0.4-0.4,1,0,1.4l0,0
			l1.9,1.9v7.1c0,0.4-0.2,0.7-0.6,0.7c-0.4,0-0.7-0.2-0.7-0.6v-0.1v-2.3c0-1.4-1.2-2.6-2.6-2.6h-1.1V15c0-0.8-0.7-1.5-1.5-1.5l0,0
			h-6.7c-0.8,0-1.5,0.7-1.5,1.5v13.6h-0.2c-0.5,0-0.8,0.4-0.8,0.8C18,29.8,18.4,30.2,18.9,30.2L18.9,30.2L18.9,30.2z M21.7,15.9
			c0-0.2,0.2-0.4,0.4-0.4l0,0h3.7c0.2,0,0.4,0.2,0.4,0.4l0,0v1.3c0,0.2-0.2,0.4-0.4,0.4l0,0h-3.7c-0.2,0-0.4-0.2-0.4-0.4l0,0V15.9z"
			/>
	</g>
</g>
</svg>
