<?xml version="1.0" encoding="utf-8"?>
<!-- Generator: Adobe Illustrator 24.0.1, SVG Export Plug-In . SVG Version: 6.00 Build 0)  -->
<svg version="1.1" id="Слой_1" xmlns="http://www.w3.org/2000/svg" xmlns:xlink="http://www.w3.org/1999/xlink" x="0px" y="0px"
	 viewBox="0 0 304.6 79.4" style="enable-background:new 0 0 304.6 79.4;" xml:space="preserve">
<style type="text/css">
	.st0{fill:#241F21;}
	.st1{fill:#E9142B;}
</style>
<g>
	<g>
		<path class="st0" d="M89.6,79.2c0,0,0-0.1,0-0.1V67.5c0-0.1,0-0.1,0-0.1c0,0,0.1,0,0.1,0h1.5c0,0,0.1,0,0.1,0c0,0,0,0.1,0,0.1
			v11.6c0,0,0,0.1,0,0.1c0,0-0.1,0.1-0.1,0.1h-1.5C89.7,79.3,89.7,79.3,89.6,79.2z M94.3,72.7c-0.1,0-0.1-0.1-0.1-0.1
			c0,0,0-0.1,0-0.2c0.1-0.2,0.7-1.2,0.7-1.4c0.1-0.2,0.1-0.4,0.1-0.5c0-0.3-0.1-0.5-0.2-0.8c-0.1-0.2-0.3-0.4-0.5-0.6
			C94,69.1,93.7,69,93.3,69h-1.2c0,0-0.1,0-0.1,0c0,0,0-0.1,0-0.1v-1.4c0-0.1,0-0.1,0-0.1c0,0,0.1,0,0.1,0h1.4c1,0,1.8,0.3,2.4,0.8
			s0.8,1.3,0.8,2.3c0,0.3-0.1,0.7-0.2,1c-0.1,0.3-0.7,1.5-0.9,1.8c-0.1,0.1-0.1,0.1-0.2,0C95,73,94.6,72.8,94.3,72.7z M92,79.2
			c0,0,0-0.1,0-0.1v-1.4c0-0.1,0-0.1,0-0.1c0,0,0.1,0,0.1,0h1.3c0.5,0,1-0.2,1.2-0.5c0.3-0.3,0.4-0.7,0.4-1.3c0-0.6-0.1-1-0.4-1.3
			C94.4,74.1,94,74,93.4,74h-1.3c0,0-0.1,0-0.1-0.1c0,0,0-0.1,0-0.1v-1.3c0-0.1,0-0.1,0-0.1c0,0,0.1,0,0.1,0h1.3
			c0.7,0,1.3,0.1,1.8,0.4c0.5,0.3,0.9,0.7,1.2,1.2c0.3,0.5,0.4,1.1,0.4,1.8c0,1.1-0.3,2-0.9,2.6c-0.6,0.6-1.4,0.9-2.5,0.9h-1.3
			C92.1,79.3,92.1,79.3,92,79.2z"/>
		<path class="st0" d="M136.2,79.2c0,0,0-0.1,0-0.1V67.5c0-0.1,0-0.1,0-0.1c0,0,0.1,0,0.1,0h1.5c0,0,0.1,0,0.1,0c0,0,0,0.1,0,0.1
			v11.6c0,0,0,0.1,0,0.1c0,0-0.1,0.1-0.1,0.1h-1.5C136.3,79.3,136.3,79.3,136.2,79.2z M140.9,72.7c-0.1,0-0.1-0.1-0.1-0.1
			c0,0,0-0.1,0-0.2c0.1-0.2,0.7-1.2,0.7-1.4c0.1-0.2,0.1-0.4,0.1-0.5c0-0.3-0.1-0.5-0.2-0.8c-0.1-0.2-0.3-0.4-0.5-0.6
			c-0.2-0.1-0.5-0.2-0.9-0.2h-1.2c0,0-0.1,0-0.1,0c0,0,0-0.1,0-0.1v-1.4c0-0.1,0-0.1,0-0.1c0,0,0.1,0,0.1,0h1.4c1,0,1.8,0.3,2.4,0.8
			c0.5,0.6,0.8,1.3,0.8,2.3c0,0.3-0.1,0.7-0.2,1c-0.1,0.3-0.7,1.5-0.9,1.8c-0.1,0.1-0.1,0.1-0.2,0C141.6,73,141.2,72.8,140.9,72.7z
			 M138.6,79.2c0,0,0-0.1,0-0.1v-1.4c0-0.1,0-0.1,0-0.1c0,0,0.1,0,0.1,0h1.3c0.5,0,1-0.2,1.2-0.5c0.3-0.3,0.4-0.7,0.4-1.3
			c0-0.6-0.1-1-0.4-1.3c-0.3-0.3-0.7-0.5-1.2-0.5h-1.3c0,0-0.1,0-0.1-0.1c0,0,0-0.1,0-0.1v-1.3c0-0.1,0-0.1,0-0.1c0,0,0.1,0,0.1,0
			h1.3c0.7,0,1.3,0.1,1.8,0.4c0.5,0.3,0.9,0.7,1.2,1.2c0.3,0.5,0.4,1.1,0.4,1.8c0,1.1-0.3,2-0.9,2.6c-0.6,0.6-1.4,0.9-2.5,0.9h-1.3
			C138.7,79.3,138.7,79.3,138.6,79.2z"/>
		<path class="st0" d="M100.4,78.1c-0.6-0.8-0.9-1.8-0.9-3.2v-7.5c0-0.1,0-0.1,0-0.1c0,0,0.1,0,0.1,0h1.5c0,0,0.1,0,0.1,0
			c0,0,0,0.1,0,0.1V75c0,0.7,0.1,1.3,0.4,1.7s0.6,0.7,1.1,0.8c0.1,0,0.1,0.1,0.1,0.2v1.6c0,0.1,0,0.1,0,0.1c0,0-0.1,0-0.1,0
			C101.8,79.3,101,78.9,100.4,78.1z M103.7,79.4C103.7,79.4,103.7,79.4,103.7,79.4c-0.1-0.1-0.1-0.1-0.1-0.2v-1.6
			c0-0.1,0-0.2,0.1-0.2c0.5-0.1,0.9-0.4,1.1-0.8c0.3-0.4,0.4-1,0.4-1.7v-7.5c0-0.1,0-0.1,0-0.1c0,0,0.1,0,0.1,0h1.5c0,0,0.1,0,0.1,0
			c0,0,0,0.1,0,0.1v7.5c0,1.4-0.3,2.4-0.9,3.2C105.6,78.9,104.8,79.3,103.7,79.4L103.7,79.4z"/>
		<path class="st0" d="M110.2,79.2c0,0,0-0.1,0-0.1V67.5c0-0.1,0-0.1,0-0.1c0,0,0.1,0,0.1,0h1.5c0,0,0.1,0,0.1,0c0,0,0,0.1,0,0.1
			v11.6c0,0,0,0.1,0,0.1c0,0-0.1,0.1-0.1,0.1h-1.5C110.2,79.3,110.2,79.3,110.2,79.2z"/>
		<path class="st0" d="M115,79.2c0,0,0-0.1,0-0.1V67.5c0-0.1,0-0.1,0-0.1c0,0,0.1,0,0.1,0h1.5c0,0,0.1,0,0.1,0c0,0,0,0.1,0,0.1v11.6
			c0,0,0,0.1,0,0.1c0,0-0.1,0.1-0.1,0.1h-1.5C115.1,79.3,115.1,79.3,115,79.2z M115.9,79.2c0,0,0-0.1,0-0.1v-1.6c0-0.1,0-0.1,0-0.1
			c0,0,0.1,0,0.1,0h4.6c0,0,0.1,0,0.1,0c0,0,0,0.1,0,0.1v1.6c0,0,0,0.1,0,0.1c0,0-0.1,0.1-0.1,0.1H116
			C115.9,79.3,115.9,79.3,115.9,79.2z"/>
		<path class="st0" d="M123,69.1c0,0,0-0.1,0-0.1v-1.6c0-0.1,0-0.1,0-0.1c0,0,0.1,0,0.1,0h5.4c0,0,0.1,0,0.1,0c0,0,0,0.1,0,0.1V69
			c0,0,0,0.1,0,0.1c0,0-0.1,0.1-0.1,0.1h-5.4C123.1,69.2,123,69.2,123,69.1z M124.9,79.2c0,0,0-0.1,0-0.1V68.8c0-0.1,0-0.1,0-0.1
			c0,0,0.1,0,0.1,0h1.5c0,0,0.1,0,0.1,0c0,0,0,0.1,0,0.1v10.3c0,0,0,0.1,0,0.1c0,0-0.1,0.1-0.1,0.1H125
			C125,79.3,125,79.3,124.9,79.2z"/>
		<path class="st0" d="M148,79.2c0,0,0-0.1,0-0.1v-4.6l-3-6.9c0-0.1-0.1-0.1-0.1-0.1c0,0,0-0.1,0-0.1c0,0,0.1,0,0.1,0h1.5
			c0.1,0,0.2,0.1,0.2,0.2l2.9,6.7c0,0.1,0,0.2,0,0.2v4.7c0,0,0,0.1,0,0.1c0,0-0.1,0.1-0.1,0.1h-1.5C148.1,79.3,148.1,79.3,148,79.2z
			 M149.2,71.7c0-0.1,0-0.2,0-0.2l1.7-4c0-0.1,0.1-0.2,0.2-0.2h1.5c0.1,0,0.1,0,0.1,0.1v0c0,0,0,0.1,0,0.1c0,0,0,0.1,0,0.1l-2.5,5.9
			c0,0.1-0.1,0.1-0.1,0.1c0,0-0.1,0-0.1-0.1L149.2,71.7z"/>
		<path class="st0" d="M159.3,79.2c0,0,0-0.1,0-0.1V67.5c0-0.1,0-0.1,0-0.1c0,0,0.1,0,0.1,0h1.5c0.1,0,0.1,0,0.1,0c0,0,0,0.1,0,0.1
			v11.6c0,0,0,0.1,0,0.1c0,0-0.1,0.1-0.1,0.1h-1.5C159.4,79.3,159.3,79.3,159.3,79.2z M161.7,74.4c0,0,0-0.1,0-0.1v-1.5
			c0-0.1,0-0.1,0-0.1c0,0,0.1,0,0.1,0h1.3c0.5,0,0.9-0.2,1.2-0.5c0.3-0.3,0.4-0.7,0.4-1.3c0-0.6-0.1-1-0.4-1.3
			c-0.3-0.3-0.7-0.5-1.2-0.5h-1.3c0,0-0.1,0-0.1-0.1c0,0,0-0.1,0-0.1v-1.5c0-0.1,0-0.1,0-0.1c0,0,0.1,0,0.1,0h1.4
			c0.7,0,1.3,0.2,1.8,0.4c0.5,0.3,0.9,0.7,1.2,1.3c0.3,0.5,0.4,1.2,0.4,1.9c0,0.7-0.1,1.3-0.4,1.8c-0.3,0.6-0.6,1-1.2,1.3
			c-0.5,0.3-1.2,0.5-1.9,0.5h-1.3C161.8,74.5,161.7,74.5,161.7,74.4z M164.3,79.2c0,0-0.1-0.1-0.1-0.1l-2-4.9c0,0,0-0.1,0-0.1
			c0-0.1,0-0.1,0.1-0.1c0.5,0,1-0.1,1.3-0.3c0.1,0,0.1,0,0.1,0c0,0,0.1,0,0.1,0c0,0,0,0,0.1,0.1l2.3,5.3c0,0,0,0.1,0,0.1
			c0,0,0,0.1,0,0.1c0,0-0.1,0-0.1,0h-1.7C164.3,79.3,164.3,79.3,164.3,79.2z"/>
		<path class="st0" d="M194,79.2c0,0,0-0.1,0-0.1V67.5c0-0.1,0-0.1,0-0.1c0,0,0.1,0,0.1,0h1.5c0.1,0,0.1,0,0.1,0c0,0,0,0.1,0,0.1
			v11.6c0,0,0,0.1,0,0.1c0,0-0.1,0.1-0.1,0.1h-1.5C194.1,79.3,194.1,79.3,194,79.2z M196.4,74.4c0,0,0-0.1,0-0.1v-1.5
			c0-0.1,0-0.1,0-0.1c0,0,0.1,0,0.1,0h1.3c0.5,0,0.9-0.2,1.2-0.5c0.3-0.3,0.4-0.7,0.4-1.3c0-0.6-0.1-1-0.4-1.3
			c-0.3-0.3-0.7-0.5-1.2-0.5h-1.3c0,0-0.1,0-0.1-0.1c0,0,0-0.1,0-0.1v-1.5c0-0.1,0-0.1,0-0.1c0,0,0.1,0,0.1,0h1.4
			c0.7,0,1.3,0.2,1.8,0.4c0.5,0.3,0.9,0.7,1.2,1.3c0.3,0.5,0.4,1.2,0.4,1.9c0,0.7-0.1,1.3-0.4,1.8c-0.3,0.6-0.6,1-1.2,1.3
			c-0.5,0.3-1.2,0.5-1.9,0.5h-1.3C196.5,74.5,196.5,74.5,196.4,74.4z M199,79.2c0,0-0.1-0.1-0.1-0.1l-2-4.9c0,0,0-0.1,0-0.1
			c0-0.1,0-0.1,0.1-0.1c0.5,0,1-0.1,1.3-0.3c0.1,0,0.1,0,0.1,0c0,0,0.1,0,0.1,0c0,0,0,0,0.1,0.1l2.3,5.3c0,0,0,0.1,0,0.1
			c0,0,0,0.1,0,0.1c0,0-0.1,0-0.1,0h-1.7C199.1,79.3,199,79.3,199,79.2z"/>
		<path class="st0" d="M237.9,79.2c0,0,0-0.1,0-0.1V67.5c0-0.1,0-0.1,0-0.1c0,0,0.1,0,0.1,0h1.5c0.1,0,0.1,0,0.1,0c0,0,0,0.1,0,0.1
			v11.6c0,0,0,0.1,0,0.1c0,0-0.1,0.1-0.1,0.1H238C238,79.3,237.9,79.3,237.9,79.2z M240.3,74.4c0,0,0-0.1,0-0.1v-1.5
			c0-0.1,0-0.1,0-0.1c0,0,0.1,0,0.1,0h1.3c0.5,0,0.9-0.2,1.2-0.5c0.3-0.3,0.4-0.7,0.4-1.3c0-0.6-0.1-1-0.4-1.3
			c-0.3-0.3-0.7-0.5-1.2-0.5h-1.3c0,0-0.1,0-0.1-0.1c0,0,0-0.1,0-0.1v-1.5c0-0.1,0-0.1,0-0.1c0,0,0.1,0,0.1,0h1.4
			c0.7,0,1.3,0.2,1.8,0.4c0.5,0.3,0.9,0.7,1.2,1.3c0.3,0.5,0.4,1.2,0.4,1.9c0,0.7-0.1,1.3-0.4,1.8c-0.3,0.6-0.6,1-1.2,1.3
			c-0.5,0.3-1.2,0.5-1.9,0.5h-1.3C240.4,74.5,240.3,74.5,240.3,74.4z M242.9,79.2c0,0-0.1-0.1-0.1-0.1l-2-4.9c0,0,0-0.1,0-0.1
			c0-0.1,0-0.1,0.1-0.1c0.5,0,1-0.1,1.3-0.3c0.1,0,0.1,0,0.1,0c0,0,0.1,0,0.1,0c0,0,0,0,0.1,0.1l2.3,5.3c0,0,0,0.1,0,0.1
			c0,0,0,0.1,0,0.1c0,0-0.1,0-0.1,0H243C242.9,79.3,242.9,79.3,242.9,79.2z"/>
		<path class="st0" d="M252.6,79.2c0,0,0-0.1,0-0.1V67.5c0-0.1,0-0.1,0-0.1c0,0,0.1,0,0.1,0h1.5c0.1,0,0.1,0,0.1,0c0,0,0,0.1,0,0.1
			v11.6c0,0,0,0.1,0,0.1c0,0-0.1,0.1-0.1,0.1h-1.5C252.7,79.3,252.6,79.3,252.6,79.2z M255,74.4c0,0,0-0.1,0-0.1v-1.5
			c0-0.1,0-0.1,0-0.1c0,0,0.1,0,0.1,0h1.3c0.5,0,0.9-0.2,1.2-0.5c0.3-0.3,0.4-0.7,0.4-1.3c0-0.6-0.1-1-0.4-1.3
			c-0.3-0.3-0.7-0.5-1.2-0.5h-1.3c0,0-0.1,0-0.1-0.1c0,0,0-0.1,0-0.1v-1.5c0-0.1,0-0.1,0-0.1c0,0,0.1,0,0.1,0h1.4
			c0.7,0,1.3,0.2,1.8,0.4c0.5,0.3,0.9,0.7,1.2,1.3c0.3,0.5,0.4,1.2,0.4,1.9c0,0.7-0.1,1.3-0.4,1.8c-0.3,0.6-0.6,1-1.2,1.3
			c-0.5,0.3-1.2,0.5-1.9,0.5h-1.3C255.1,74.5,255,74.5,255,74.4z M257.6,79.2c0,0-0.1-0.1-0.1-0.1l-2-4.9c0,0,0-0.1,0-0.1
			c0-0.1,0-0.1,0.1-0.1c0.5,0,1-0.1,1.3-0.3c0.1,0,0.1,0,0.1,0c0,0,0.1,0,0.1,0c0,0,0,0,0.1,0.1l2.3,5.3c0,0,0,0.1,0,0.1
			c0,0,0,0.1,0,0.1c0,0-0.1,0-0.1,0h-1.7C257.6,79.3,257.6,79.3,257.6,79.2z"/>
		<path class="st0" d="M287.3,79.2c0,0,0-0.1,0-0.1V67.5c0-0.1,0-0.1,0-0.1c0,0,0.1,0,0.1,0h1.5c0.1,0,0.1,0,0.1,0c0,0,0,0.1,0,0.1
			v11.6c0,0,0,0.1,0,0.1c0,0-0.1,0.1-0.1,0.1h-1.5C287.3,79.3,287.3,79.3,287.3,79.2z M289.7,74.4c0,0,0-0.1,0-0.1v-1.5
			c0-0.1,0-0.1,0-0.1c0,0,0.1,0,0.1,0h1.3c0.5,0,0.9-0.2,1.2-0.5c0.3-0.3,0.4-0.7,0.4-1.3c0-0.6-0.1-1-0.4-1.3
			c-0.3-0.3-0.7-0.5-1.2-0.5h-1.3c0,0-0.1,0-0.1-0.1c0,0,0-0.1,0-0.1v-1.5c0-0.1,0-0.1,0-0.1c0,0,0.1,0,0.1,0h1.4
			c0.7,0,1.3,0.2,1.8,0.4c0.5,0.3,0.9,0.7,1.2,1.3c0.3,0.5,0.4,1.2,0.4,1.9c0,0.7-0.1,1.3-0.4,1.8c-0.3,0.6-0.6,1-1.2,1.3
			c-0.5,0.3-1.2,0.5-1.9,0.5h-1.3C289.7,74.5,289.7,74.5,289.7,74.4z M292.2,79.2c0,0-0.1-0.1-0.1-0.1l-2-4.9c0,0,0-0.1,0-0.1
			c0-0.1,0-0.1,0.1-0.1c0.5,0,1-0.1,1.3-0.3c0.1,0,0.1,0,0.1,0c0,0,0.1,0,0.1,0c0,0,0,0,0.1,0.1l2.3,5.3c0,0,0,0.1,0,0.1
			c0,0,0,0.1,0,0.1c0,0-0.1,0-0.1,0h-1.7C292.3,79.3,292.3,79.3,292.2,79.2z"/>
		<path class="st0" d="M169.5,79.2c0,0,0-0.1,0-0.1V67.5c0-0.1,0-0.1,0-0.1c0,0,0.1,0,0.1,0h1.5c0,0,0.1,0,0.1,0c0,0,0,0.1,0,0.1
			v11.6c0,0,0,0.1,0,0.1c0,0-0.1,0.1-0.1,0.1h-1.5C169.6,79.3,169.5,79.3,169.5,79.2z"/>
		<path class="st0" d="M174.4,79.2c0,0,0-0.1,0-0.1V67.5c0-0.1,0-0.1,0-0.1c0,0,0.1,0,0.1,0h1.5c0,0,0.1,0,0.1,0c0,0,0,0.1,0,0.1
			v11.6c0,0,0,0.1,0,0.1c0,0-0.1,0.1-0.1,0.1h-1.5C174.5,79.3,174.4,79.3,174.4,79.2z M176.8,79.2c0,0,0-0.1,0-0.1v-1.6
			c0-0.1,0-0.1,0-0.1c0,0,0.1,0,0.1,0h0.9c0.6,0,1-0.1,1.3-0.3c0.3-0.2,0.6-0.6,0.7-1.1c0.1-0.2,0.1-0.5,0.1-0.9c0-0.4,0-0.9,0-1.7
			c0-0.8,0-1.4,0-1.7c0-0.4-0.1-0.7-0.1-0.9c-0.2-0.5-0.4-0.9-0.7-1.1c-0.3-0.2-0.8-0.3-1.3-0.3h-0.9c0,0-0.1,0-0.1-0.1
			c0,0,0-0.1,0-0.1v-1.6c0-0.1,0-0.1,0-0.1c0,0,0.1,0,0.1,0h1.2c0.9,0,1.6,0.2,2.2,0.7c0.6,0.4,1,1.1,1.2,2c0.1,0.4,0.2,0.8,0.2,1.3
			c0,0.5,0.1,1.2,0.1,2.1c0,1,0,1.7-0.1,2.1c0,0.5-0.1,0.9-0.2,1.3c-0.2,0.9-0.6,1.5-1.2,2c-0.6,0.4-1.3,0.7-2.2,0.7h-1.2
			C176.9,79.3,176.8,79.3,176.8,79.2z"/>
		<path class="st0" d="M184.7,79.2c0,0,0-0.1,0-0.1V67.5c0-0.1,0-0.1,0-0.1c0,0,0.1,0,0.1,0h1.5c0.1,0,0.1,0,0.1,0c0,0,0,0.1,0,0.1
			v11.6c0,0,0,0.1,0,0.1c0,0-0.1,0.1-0.1,0.1h-1.5C184.8,79.3,184.7,79.3,184.7,79.2z M187.1,69.1c0,0,0-0.1,0-0.1v-1.5
			c0-0.1,0-0.1,0-0.1c0,0,0.1,0,0.1,0h3.9c0.1,0,0.1,0,0.1,0c0,0,0,0.1,0,0.1V69c0,0,0,0.1,0,0.1c0,0-0.1,0.1-0.1,0.1h-3.9
			C187.1,69.1,187.1,69.1,187.1,69.1z M187.1,74.1c0,0,0-0.1,0-0.1v-1.5c0-0.1,0-0.1,0-0.1c0,0,0.1,0,0.1,0h3.2c0.1,0,0.1,0,0.1,0
			c0,0,0,0.1,0,0.1V74c0,0,0,0.1,0,0.1c0,0-0.1,0.1-0.1,0.1h-3.2C187.1,74.1,187.1,74.1,187.1,74.1z M187.1,79.2c0,0,0-0.1,0-0.1
			v-1.5c0-0.1,0-0.1,0-0.1c0,0,0.1,0,0.1,0h3.9c0.1,0,0.1,0,0.1,0c0,0,0,0.1,0,0.1v1.5c0,0,0,0.1,0,0.1c0,0-0.1,0.1-0.1,0.1h-3.9
			C187.1,79.3,187.1,79.3,187.1,79.2z"/>
		<path class="st0" d="M205.1,78.9c-0.6-0.3-1.1-0.6-1.4-1c0,0-0.1-0.1-0.1-0.1c0-0.1,0-0.1,0-0.2l0.9-1.2c0.1-0.1,0.1-0.1,0.2,0
			c0.3,0.3,0.6,0.5,1,0.8c0.4,0.2,0.8,0.4,1.3,0.4c0.1,0,0.1,0.1,0.1,0.2v1.5c0,0.1,0,0.1,0,0.1c0,0-0.1,0-0.1,0
			C206.4,79.4,205.7,79.2,205.1,78.9z M207.9,79.4C207.9,79.4,207.9,79.4,207.9,79.4c-0.1-0.1-0.1-0.1-0.1-0.2v-1.5
			c0-0.1,0-0.2,0.1-0.2c0.5-0.1,0.9-0.2,1.1-0.5c0.3-0.3,0.4-0.7,0.4-1.1c0-0.5-0.1-0.8-0.4-1.1c-0.3-0.3-0.8-0.4-1.4-0.6l-0.5-0.1
			c-1-0.2-1.8-0.5-2.3-1.1c-0.5-0.6-0.8-1.4-0.8-2.4c0-0.7,0.1-1.3,0.4-1.8c0.2-0.5,0.6-0.9,1-1.2c0.5-0.3,1-0.5,1.6-0.5h0
			c0,0,0.1,0,0.1,0c0,0,0,0.1,0,0.1v1.5c0,0.1,0,0.2-0.1,0.2c-0.4,0.1-0.7,0.3-0.9,0.5c-0.2,0.3-0.3,0.6-0.3,1
			c0,0.4,0.1,0.8,0.4,1.1c0.3,0.3,0.8,0.4,1.4,0.6l0.5,0.1c1.1,0.2,1.8,0.5,2.4,1.1c0.5,0.6,0.8,1.4,0.8,2.4c0,0.7-0.1,1.3-0.4,1.8
			c-0.3,0.5-0.6,1-1.1,1.3C209.3,79.2,208.7,79.4,207.9,79.4L207.9,79.4z M208.9,69.3c-0.3-0.1-0.6-0.2-1-0.3
			c-0.1,0-0.1-0.1-0.1-0.2v-1.5c0-0.1,0-0.1,0-0.1c0,0,0.1,0,0.1,0c0.5,0,1.1,0.2,1.6,0.4c0.5,0.2,0.9,0.4,1.3,0.8
			c0,0,0.1,0.1,0.1,0.1c0,0,0,0.1-0.1,0.1l-0.7,1.3c-0.1,0.1-0.1,0.1-0.2,0C209.5,69.6,209.2,69.4,208.9,69.3z"/>
		<path class="st0" d="M218.5,79.2c0,0,0-0.1,0-0.1V67.5c0-0.1,0-0.1,0-0.1c0,0,0.1,0,0.1,0h1.5c0.1,0,0.1,0,0.1,0c0,0,0,0.1,0,0.1
			v11.6c0,0,0,0.1,0,0.1c0,0-0.1,0.1-0.1,0.1h-1.5C218.6,79.3,218.5,79.3,218.5,79.2z M220.9,69.1c0,0,0-0.1,0-0.1v-1.5
			c0-0.1,0-0.1,0-0.1c0,0,0.1,0,0.1,0h3.9c0.1,0,0.1,0,0.1,0c0,0,0,0.1,0,0.1V69c0,0,0,0.1,0,0.1c0,0-0.1,0.1-0.1,0.1H221
			C221,69.1,220.9,69.1,220.9,69.1z M220.9,74.2c0,0,0-0.1,0-0.1v-1.5c0-0.1,0-0.1,0-0.1c0,0,0.1,0,0.1,0h3.2c0.1,0,0.1,0,0.1,0
			c0,0,0,0.1,0,0.1v1.5c0,0,0,0.1,0,0.1c0,0-0.1,0.1-0.1,0.1H221C221,74.3,220.9,74.2,220.9,74.2z"/>
		<path class="st0" d="M228.8,78.6c-0.5-0.5-0.9-1.1-1.2-2c-0.1-0.4-0.2-0.8-0.2-1.3c0-0.5-0.1-1.2-0.1-2.1c0-0.9,0-1.6,0.1-2.1
			c0-0.5,0.1-0.9,0.2-1.3c0.2-0.8,0.6-1.5,1.2-2c0.5-0.5,1.2-0.7,1.9-0.8h0c0,0,0.1,0,0.1,0c0,0,0,0.1,0,0.1v1.6
			c0,0.1,0,0.2-0.1,0.2c-0.7,0.2-1.2,0.7-1.4,1.5c-0.1,0.2-0.1,0.6-0.2,1c0,0.4-0.1,1-0.1,1.8c0,0.8,0,1.3,0.1,1.8
			c0,0.4,0.1,0.8,0.2,1c0.2,0.8,0.7,1.3,1.4,1.5c0.1,0,0.1,0.1,0.1,0.2v1.6c0,0.1,0,0.1,0,0.1c0,0-0.1,0-0.1,0
			C230,79.3,229.3,79.1,228.8,78.6z M231.6,79.4C231.6,79.4,231.6,79.4,231.6,79.4c-0.1-0.1-0.1-0.1-0.1-0.2v-1.6
			c0-0.1,0-0.2,0.1-0.2c0.7-0.2,1.2-0.7,1.4-1.5c0.1-0.5,0.2-1.4,0.2-2.8c0-1.3-0.1-2.2-0.2-2.8c-0.2-0.8-0.7-1.3-1.4-1.5
			c-0.1,0-0.1-0.1-0.1-0.2v-1.6c0-0.1,0-0.1,0-0.1c0,0,0.1,0,0.1,0c0.8,0.1,1.4,0.3,2,0.8s0.9,1.1,1.2,2c0.1,0.4,0.2,0.8,0.2,1.3
			c0,0.5,0.1,1.2,0.1,2.1c0,0.9,0,1.6-0.1,2.1c0,0.5-0.1,0.9-0.2,1.3c-0.2,0.8-0.6,1.5-1.2,2C233.1,79.1,232.4,79.4,231.6,79.4
			L231.6,79.4z"/>
		<path class="st0" d="M262.8,79.2c0,0,0-0.1,0-0.1V67.5c0-0.1,0-0.1,0-0.1c0,0,0.1,0,0.1,0h1.5c0,0,0.1,0,0.1,0c0,0,0,0.1,0,0.1
			v11.6c0,0,0,0.1,0,0.1c0,0-0.1,0.1-0.1,0.1h-1.5C262.9,79.3,262.8,79.3,262.8,79.2z"/>
		<path class="st0" d="M267.7,79.2c0,0,0-0.1,0-0.1V67.5c0-0.1,0-0.1,0-0.1c0,0,0.1,0,0.1,0h1.5c0,0,0.1,0,0.1,0c0,0,0,0.1,0,0.1
			v11.6c0,0,0,0.1,0,0.1c0,0-0.1,0.1-0.1,0.1h-1.5C267.8,79.3,267.7,79.3,267.7,79.2z M270.1,79.2c0,0,0-0.1,0-0.1v-1.6
			c0-0.1,0-0.1,0-0.1c0,0,0.1,0,0.1,0h0.9c0.6,0,1-0.1,1.3-0.3c0.3-0.2,0.6-0.6,0.7-1.1c0.1-0.2,0.1-0.5,0.1-0.9c0-0.4,0-0.9,0-1.7
			c0-0.8,0-1.4,0-1.7c0-0.4-0.1-0.7-0.1-0.9c-0.2-0.5-0.4-0.9-0.7-1.1c-0.3-0.2-0.8-0.3-1.3-0.3h-0.9c0,0-0.1,0-0.1-0.1
			c0,0,0-0.1,0-0.1v-1.6c0-0.1,0-0.1,0-0.1c0,0,0.1,0,0.1,0h1.2c0.9,0,1.6,0.2,2.2,0.7c0.6,0.4,1,1.1,1.2,2c0.1,0.4,0.2,0.8,0.2,1.3
			c0,0.5,0.1,1.2,0.1,2.1c0,1,0,1.7-0.1,2.1c0,0.5-0.1,0.9-0.2,1.3c-0.2,0.9-0.6,1.5-1.2,2c-0.6,0.4-1.3,0.7-2.2,0.7h-1.2
			C270.2,79.3,270.1,79.3,270.1,79.2z"/>
		<path class="st0" d="M278,79.2c0,0,0-0.1,0-0.1V67.5c0-0.1,0-0.1,0-0.1c0,0,0.1,0,0.1,0h1.5c0.1,0,0.1,0,0.1,0c0,0,0,0.1,0,0.1
			v11.6c0,0,0,0.1,0,0.1c0,0-0.1,0.1-0.1,0.1h-1.5C278.1,79.3,278,79.3,278,79.2z M280.4,69.1c0,0,0-0.1,0-0.1v-1.5
			c0-0.1,0-0.1,0-0.1c0,0,0.1,0,0.1,0h3.9c0.1,0,0.1,0,0.1,0c0,0,0,0.1,0,0.1V69c0,0,0,0.1,0,0.1c0,0-0.1,0.1-0.1,0.1h-3.9
			C280.4,69.1,280.4,69.1,280.4,69.1z M280.4,74.1c0,0,0-0.1,0-0.1v-1.5c0-0.1,0-0.1,0-0.1c0,0,0.1,0,0.1,0h3.2c0.1,0,0.1,0,0.1,0
			c0,0,0,0.1,0,0.1V74c0,0,0,0.1,0,0.1c0,0-0.1,0.1-0.1,0.1h-3.2C280.4,74.1,280.4,74.1,280.4,74.1z M280.4,79.2c0,0,0-0.1,0-0.1
			v-1.5c0-0.1,0-0.1,0-0.1c0,0,0.1,0,0.1,0h3.9c0.1,0,0.1,0,0.1,0c0,0,0,0.1,0,0.1v1.5c0,0,0,0.1,0,0.1c0,0-0.1,0.1-0.1,0.1h-3.9
			C280.4,79.3,280.4,79.3,280.4,79.2z"/>
		<path class="st0" d="M298.4,78.9c-0.6-0.3-1.1-0.6-1.4-1c0,0-0.1-0.1-0.1-0.1c0-0.1,0-0.1,0-0.2l0.9-1.2c0.1-0.1,0.1-0.1,0.2,0
			c0.3,0.3,0.6,0.5,1,0.8c0.4,0.2,0.8,0.4,1.3,0.4c0.1,0,0.1,0.1,0.1,0.2v1.5c0,0.1,0,0.1,0,0.1c0,0-0.1,0-0.1,0
			C299.7,79.4,299,79.2,298.4,78.9z M301.2,79.4C301.2,79.4,301.2,79.4,301.2,79.4c-0.1-0.1-0.1-0.1-0.1-0.2v-1.5
			c0-0.1,0-0.2,0.1-0.2c0.5-0.1,0.9-0.2,1.1-0.5c0.3-0.3,0.4-0.7,0.4-1.1c0-0.5-0.1-0.8-0.4-1.1c-0.3-0.3-0.8-0.4-1.4-0.6l-0.5-0.1
			c-1-0.2-1.8-0.5-2.3-1.1c-0.5-0.6-0.8-1.4-0.8-2.4c0-0.7,0.1-1.3,0.4-1.8c0.2-0.5,0.6-0.9,1-1.2c0.5-0.3,1-0.5,1.6-0.5h0
			c0,0,0.1,0,0.1,0c0,0,0,0.1,0,0.1v1.5c0,0.1,0,0.2-0.1,0.2c-0.4,0.1-0.7,0.3-0.9,0.5c-0.2,0.3-0.3,0.6-0.3,1
			c0,0.4,0.1,0.8,0.4,1.1c0.3,0.3,0.8,0.4,1.4,0.6l0.5,0.1c1.1,0.2,1.8,0.5,2.4,1.1c0.5,0.6,0.8,1.4,0.8,2.4c0,0.7-0.1,1.3-0.4,1.8
			c-0.3,0.5-0.6,1-1.1,1.3C302.6,79.2,302,79.4,301.2,79.4L301.2,79.4z M302.2,69.3c-0.3-0.1-0.6-0.2-1-0.3c-0.1,0-0.1-0.1-0.1-0.2
			v-1.5c0-0.1,0-0.1,0-0.1c0,0,0.1,0,0.1,0c0.5,0,1.1,0.2,1.6,0.4c0.5,0.2,0.9,0.4,1.3,0.8c0,0,0.1,0.1,0.1,0.1c0,0,0,0.1-0.1,0.1
			l-0.7,1.3c-0.1,0.1-0.1,0.1-0.2,0C302.8,69.6,302.5,69.4,302.2,69.3z"/>
	</g>
	<g>
		<g>
			<path class="st0" d="M236.1,32.7c-1.5-1.3-2.6-3.2-3.3-5.5c-0.3-1.1-0.5-2.3-0.6-3.6c-0.1-1.3-0.2-3.2-0.2-5.7
				c0-2.5,0.1-4.4,0.2-5.7c0.1-1.3,0.3-2.5,0.6-3.6c0.7-2.4,1.8-4.2,3.3-5.5c1.5-1.3,3.3-2.1,5.5-2.3h0.1c0.1,0,0.2,0,0.2,0.1
				C242,1,242,1.1,242,1.2v4.4c0,0.3-0.1,0.4-0.4,0.5c-1,0.2-1.8,0.6-2.5,1.3c-0.7,0.7-1.2,1.6-1.5,2.8c-0.2,0.6-0.3,1.5-0.4,2.6
				c-0.1,1.1-0.1,2.8-0.1,5.1c0,2.3,0,4,0.1,5.1c0.1,1.1,0.2,2,0.4,2.6c0.3,1.1,0.8,2.1,1.5,2.8c0.7,0.7,1.5,1.2,2.6,1.4
				c0.2,0,0.4,0.2,0.4,0.5v4.4c0,0.2,0,0.3-0.1,0.4c-0.1,0.1-0.2,0.1-0.3,0.1C239.5,34.7,237.6,34,236.1,32.7z M244.1,34.9
				c-0.1,0-0.2,0-0.2-0.1c-0.1-0.1-0.1-0.2-0.1-0.3v-4.3c0-0.3,0.1-0.5,0.4-0.5c1-0.2,1.9-0.7,2.6-1.3c0.7-0.7,1.2-1.6,1.5-2.7
				c0.3-1,0.4-2.4,0.4-4.2c0-0.2-0.1-0.3-0.2-0.3h-4.7c-0.1,0-0.2,0-0.3-0.1c-0.1-0.1-0.1-0.2-0.1-0.3V17c0-0.2,0-0.3,0.1-0.4
				c0.1-0.1,0.2-0.1,0.3-0.1h9.4c0.1,0,0.2,0,0.3,0.1c0.1,0.1,0.1,0.2,0.1,0.4v2.4c0,3.2-0.2,5.7-0.7,7.5c-0.6,2.4-1.7,4.2-3.2,5.6
				C248.1,33.9,246.3,34.7,244.1,34.9L244.1,34.9z M248.7,10c-0.2,0-0.3-0.1-0.4-0.3c-0.5-1.1-1.1-1.9-1.8-2.5
				c-0.7-0.6-1.5-1-2.4-1.2c-0.2-0.1-0.4-0.2-0.4-0.5V1.2c0-0.2,0-0.3,0.1-0.4c0.1-0.1,0.2-0.1,0.3-0.1c2,0.2,3.7,0.9,5.1,2.1
				c1.4,1.2,2.5,2.7,3.2,4.5c0.1,0.2,0.1,0.3,0.1,0.3c0,0.2-0.1,0.3-0.2,0.4l-3.5,1.9C248.9,10,248.8,10,248.7,10z"/>
			<path class="st0" d="M259.9,34.3c-0.1-0.1-0.1-0.2-0.1-0.3V1.7c0-0.2,0-0.3,0.1-0.4c0.1-0.1,0.2-0.1,0.3-0.1h4.1
				c0.1,0,0.2,0,0.3,0.1c0.1,0.1,0.1,0.2,0.1,0.4V34c0,0.1,0,0.2-0.1,0.3c-0.1,0.1-0.2,0.1-0.3,0.1h-4.1
				C260.1,34.5,260,34.4,259.9,34.3z M266.6,21.7c-0.1-0.1-0.1-0.2-0.1-0.3v-4.2c0-0.2,0-0.3,0.1-0.4c0.1-0.1,0.2-0.1,0.3-0.1h3.5
				c1.6,0,2.8-0.5,3.6-1.4c0.9-0.9,1.3-2.2,1.3-3.8c0-1.6-0.4-2.9-1.3-3.8c-0.9-0.9-2.1-1.4-3.6-1.4h-3.5c-0.1,0-0.2,0-0.3-0.1
				c-0.1-0.1-0.1-0.2-0.1-0.3V1.7c0-0.2,0-0.3,0.1-0.4c0.1-0.1,0.2-0.1,0.3-0.1h3.8c2,0,3.7,0.4,5.1,1.3c1.4,0.9,2.5,2.1,3.3,3.6
				c0.8,1.6,1.1,3.4,1.1,5.4c0,2-0.4,3.8-1.1,5.4c-0.8,1.6-1.9,2.8-3.3,3.6c-1.4,0.9-3.1,1.3-5.1,1.3h-3.8
				C266.8,21.8,266.7,21.8,266.6,21.7z"/>
			<path class="st0" d="M287.5,33.6c-1.7-0.8-3-1.8-4-2.9c-0.1-0.1-0.1-0.2-0.2-0.4c0-0.1,0-0.3,0.1-0.4l2.4-3.4
				c0.2-0.2,0.4-0.2,0.6,0c0.8,0.8,1.8,1.5,2.9,2.1c1.1,0.6,2.3,1,3.5,1.2c0.2,0,0.4,0.2,0.4,0.5v4.2c0,0.2,0,0.3-0.1,0.4
				c-0.1,0.1-0.2,0.1-0.3,0.1C290.9,34.9,289.2,34.4,287.5,33.6z M295.2,34.9c-0.1,0-0.2,0-0.2-0.1c-0.1-0.1-0.1-0.2-0.1-0.3v-4.2
				c0-0.3,0.1-0.5,0.4-0.5c1.4-0.2,2.4-0.7,3.2-1.5s1.1-1.9,1.1-3.2c0-1.3-0.4-2.3-1.1-3c-0.8-0.7-2.1-1.2-4-1.5l-1.5-0.2
				c-2.9-0.5-5-1.5-6.5-3.1c-1.5-1.6-2.2-3.8-2.2-6.5c0-1.9,0.3-3.5,1-4.9c0.7-1.4,1.6-2.6,2.9-3.4c1.3-0.8,2.8-1.4,4.5-1.5h0.1
				c0.1,0,0.2,0,0.2,0.1c0.1,0.1,0.1,0.2,0.1,0.3v4.2c0,0.3-0.1,0.5-0.4,0.5c-1.1,0.2-2,0.7-2.6,1.5c-0.6,0.8-0.9,1.7-0.9,2.9
				c0,1.2,0.4,2.2,1.2,2.9c0.8,0.7,2.1,1.2,4,1.5l1.4,0.2c2.9,0.5,5.1,1.5,6.5,3.1c1.4,1.6,2.1,3.8,2.1,6.7c0,1.9-0.3,3.5-1,5
				c-0.7,1.5-1.7,2.7-3.1,3.6C299,34.2,297.3,34.8,295.2,34.9L295.2,34.9z M298,6.7c-0.9-0.4-1.8-0.7-2.7-0.8
				c-0.2-0.1-0.4-0.2-0.4-0.5V1.2c0-0.2,0-0.3,0.1-0.4c0.1-0.1,0.2-0.1,0.3-0.1c1.5,0.1,3,0.5,4.3,1c1.3,0.5,2.5,1.2,3.5,2.1
				c0.1,0.1,0.2,0.2,0.2,0.3c0,0.1,0,0.3-0.1,0.4l-2,3.6c-0.2,0.2-0.4,0.3-0.6,0.1C299.7,7.6,298.8,7.1,298,6.7z"/>
		</g>
		<g>
			<path class="st0" d="M89.6,34.3c0-0.1,0-0.2,0-0.3l8.9-29.3c0-0.1,0.1-0.2,0.1-0.2c0.1-0.1,0.1-0.1,0.2-0.1c0.1,0,0.2,0,0.2,0.1
				c0.1,0.1,0.1,0.1,0.1,0.2l1.8,6.7c0.1,0.1,0.1,0.2,0.1,0.3c0,0.1,0,0.2-0.1,0.3l-3,10.4h5.8c0.2,0,0.4,0.1,0.5,0.4l1.1,4.1l0,0.1
				c0,0.1,0,0.2-0.1,0.3c-0.1,0.1-0.2,0.1-0.3,0.1h-8.4L94.7,34c-0.1,0.3-0.3,0.5-0.5,0.5h-4.2C89.8,34.5,89.7,34.4,89.6,34.3z
				 M109.2,34l-9-32.2c0-0.1,0-0.2,0-0.3c0-0.2,0.1-0.3,0.3-0.3h3.6c0.3,0,0.5,0.2,0.5,0.5l9.7,32.3l0,0.1c0,0.1,0,0.2-0.1,0.2
				c-0.1,0.1-0.1,0.1-0.2,0.1h-4.2C109.4,34.5,109.2,34.3,109.2,34z"/>
			<path class="st0" d="M120.5,34.3c-0.1-0.1-0.1-0.2-0.1-0.3V1.7c0-0.2,0-0.3,0.1-0.4c0.1-0.1,0.2-0.1,0.3-0.1h4.1
				c0.1,0,0.2,0,0.3,0.1c0.1,0.1,0.1,0.2,0.1,0.4V34c0,0.1,0,0.2-0.1,0.3s-0.2,0.1-0.3,0.1h-4.1C120.7,34.5,120.6,34.4,120.5,34.3z
				 M121.3,34.3c-0.1-0.1-0.2-0.2-0.2-0.3v-4.3c0-0.2,0.1-0.3,0.2-0.4c0.1-0.1,0.2-0.1,0.4-0.1h15c0.2,0,0.3,0,0.4,0.1
				c0.1,0.1,0.1,0.2,0.1,0.4V34c0,0.1,0,0.2-0.1,0.3c-0.1,0.1-0.2,0.1-0.4,0.1h-15C121.5,34.5,121.4,34.4,121.3,34.3z"/>
			<path class="st1" d="M142.6,27.4c0-0.2,0.1-0.4,0.3-0.5l3.5-0.8l0.2,0c0.2,0,0.3,0.1,0.3,0.4c0.2,0.8,0.6,1.6,1.1,2.2
				c0.5,0.6,1.2,1.1,2,1.3c0.2,0.1,0.3,0.3,0.3,0.5v3.9c0,0.2,0,0.3-0.1,0.4c-0.1,0.1-0.2,0.1-0.4,0.1c-1.9-0.3-3.5-1.1-4.8-2.4
				C143.7,31.1,142.9,29.5,142.6,27.4L142.6,27.4z M144.1,4.6c0.6-1,1.4-1.9,2.4-2.6c1-0.7,2.1-1.1,3.4-1.3h0.1c0.1,0,0.2,0,0.3,0.1
				s0.1,0.2,0.1,0.3v3.8c0,0.3-0.1,0.4-0.4,0.5c-0.7,0.2-1.3,0.6-1.8,1.2c-0.5,0.6-0.8,1.3-1,2.2c-0.1,0.3-0.3,0.4-0.5,0.4l-3.5-0.8
				c-0.1,0-0.2-0.1-0.3-0.2s-0.1-0.2-0.1-0.4C143.1,6.8,143.5,5.7,144.1,4.6z M149.4,15.4c0-0.2,0-0.3,0.1-0.4
				c0.1-0.1,0.2-0.1,0.3-0.1h1.2c1.2,0,2.2-0.4,3-1.3c0.7-0.9,1.1-2.1,1.1-3.6c0-1.1-0.2-2.1-0.7-2.9c-0.5-0.8-1.1-1.3-2-1.5
				c-0.2-0.1-0.4-0.3-0.4-0.5V1.2c0-0.2,0-0.3,0.1-0.4c0.1-0.1,0.2-0.1,0.3-0.1c1.5,0.2,2.8,0.6,3.9,1.4c1.1,0.8,1.9,1.9,2.5,3.2
				c0.6,1.3,0.9,2.8,0.9,4.4c0,1.5-0.3,2.9-0.9,4.1s-1.4,2.2-2.5,2.9v0.1c0.7,0.4,1.3,0.9,1.9,1.6c0.6,0.7,1.1,1.7,1.5,2.8
				c0.4,1.1,0.6,2.4,0.6,3.8c0,1.8-0.3,3.4-1,4.8c-0.7,1.4-1.6,2.6-2.8,3.5c-1.2,0.9-2.6,1.4-4.1,1.6c-0.1,0-0.2,0-0.3-0.1
				c-0.1-0.1-0.1-0.2-0.1-0.4v-3.8c0-0.3,0.1-0.5,0.4-0.5c1-0.2,1.8-0.8,2.4-1.7c0.6-0.9,0.9-2,0.9-3.4c0-1.6-0.4-2.9-1.2-3.9
				c-0.8-1-1.9-1.5-3.3-1.5h-1.2c-0.1,0-0.2,0-0.3-0.1c-0.1-0.1-0.1-0.2-0.1-0.3V15.4z"/>
			<path class="st0" d="M166.7,34.3c-0.1-0.1-0.1-0.2-0.1-0.3V1.7c0-0.2,0-0.3,0.1-0.4c0.1-0.1,0.2-0.1,0.3-0.1h4.1
				c0.1,0,0.2,0,0.3,0.1c0.1,0.1,0.1,0.2,0.1,0.4V34c0,0.1,0,0.2-0.1,0.3c-0.1,0.1-0.2,0.1-0.3,0.1H167
				C166.9,34.5,166.8,34.4,166.7,34.3z M173.4,21c-0.1-0.1-0.1-0.2-0.1-0.3v-4.1c0-0.2,0-0.3,0.1-0.4c0.1-0.1,0.2-0.1,0.3-0.1h3.7
				c1.5,0,2.6-0.4,3.4-1.3c0.8-0.8,1.2-2,1.2-3.6c0-1.5-0.4-2.7-1.2-3.6c-0.8-0.9-2-1.3-3.4-1.3h-3.7c-0.1,0-0.2,0-0.3-0.1
				c-0.1-0.1-0.1-0.2-0.1-0.3V1.7c0-0.2,0-0.3,0.1-0.4c0.1-0.1,0.2-0.1,0.3-0.1h4c1.9,0,3.5,0.4,4.9,1.2c1.4,0.8,2.5,2,3.2,3.5
				c0.8,1.5,1.1,3.2,1.1,5.2c0,1.9-0.4,3.6-1.1,5.1c-0.7,1.5-1.8,2.7-3.2,3.6c-1.5,0.9-3.3,1.3-5.4,1.3h-3.6
				C173.5,21.2,173.4,21.1,173.4,21z M180.7,34.4c-0.1-0.1-0.2-0.2-0.2-0.4l-5.2-13.4c0-0.1,0-0.1,0-0.2c0-0.2,0.1-0.3,0.3-0.3
				c1.4-0.1,2.6-0.3,3.7-0.7c0.2-0.1,0.4-0.1,0.4-0.1c0.1,0,0.2,0,0.2,0c0.1,0,0.1,0.1,0.1,0.2l5.9,14.5c0,0.1,0,0.1,0,0.2
				s0,0.2-0.1,0.2c-0.1,0.1-0.1,0.1-0.2,0.1H181C180.9,34.5,180.8,34.5,180.7,34.4z"/>
			<path class="st0" d="M191.8,6.3c-0.1-0.1-0.1-0.2-0.1-0.3V1.7c0-0.2,0-0.3,0.1-0.4c0.1-0.1,0.1-0.1,0.2-0.1H209
				c0.1,0,0.2,0,0.3,0.1c0.1,0.1,0.1,0.2,0.1,0.4V6c0,0.1,0,0.2-0.1,0.3c-0.1,0.1-0.1,0.1-0.3,0.1H192
				C191.9,6.5,191.9,6.4,191.8,6.3z M198.2,34.3c-0.1-0.1-0.1-0.2-0.1-0.4V6.1c0-0.2,0-0.3,0.1-0.4c0.1-0.1,0.2-0.1,0.3-0.1h4.1
				c0.1,0,0.2,0,0.3,0.1c0.1,0.1,0.1,0.2,0.1,0.4v27.9c0,0.1,0,0.3-0.1,0.4c-0.1,0.1-0.2,0.2-0.3,0.2h-4.1
				C198.4,34.5,198.3,34.4,198.2,34.3z"/>
		</g>
	</g>
	<g>
		<path class="st1" d="M93.8,55.4h-1.8v-7.1h-2.3v-1.5h6.5v1.5h-2.3V55.4z"/>
		<path class="st1" d="M102.5,52.1v3.3h-1.8v-8.6h2.5c1.2,0,2,0.2,2.6,0.6c0.6,0.4,0.8,1.1,0.8,1.9c0,0.5-0.1,1-0.4,1.4
			c-0.3,0.4-0.7,0.7-1.2,0.9c1.3,1.9,2.1,3.2,2.5,3.8h-2l-2.1-3.3H102.5z M102.5,50.6h0.6c0.6,0,1-0.1,1.3-0.3
			c0.3-0.2,0.4-0.5,0.4-0.9c0-0.4-0.1-0.7-0.4-0.9c-0.3-0.2-0.7-0.3-1.3-0.3h-0.6V50.6z"/>
		<path class="st1" d="M117.2,55.4l-0.6-2.1h-3.1l-0.6,2.1h-2l3-8.7h2.2l3.1,8.7H117.2z M116.1,51.8c-0.6-1.9-0.9-2.9-1-3.2
			c-0.1-0.2-0.1-0.4-0.2-0.6c-0.1,0.5-0.5,1.7-1.1,3.7H116.1z"/>
		<path class="st1" d="M127.2,48.2c-0.7,0-1.2,0.3-1.6,0.8c-0.4,0.5-0.6,1.2-0.6,2.2c0,1.9,0.7,2.9,2.2,2.9c0.6,0,1.3-0.2,2.2-0.5
			v1.5c-0.7,0.3-1.5,0.4-2.4,0.4c-1.3,0-2.2-0.4-2.9-1.1c-0.7-0.8-1-1.9-1-3.3c0-0.9,0.2-1.7,0.5-2.4s0.8-1.2,1.4-1.6
			c0.6-0.4,1.3-0.5,2.2-0.5c0.8,0,1.7,0.2,2.5,0.6l-0.6,1.5c-0.3-0.2-0.6-0.3-1-0.4C127.8,48.2,127.5,48.2,127.2,48.2z"/>
		<path class="st1" d="M141.4,55.4h-2.1l-2.3-3.6l-0.8,0.6v3.1h-1.8v-8.6h1.8v3.9l0.7-1l2.3-2.9h2l-3,3.8L141.4,55.4z"/>
		<path class="st1" d="M145.7,55.4v-8.6h1.8v8.6H145.7z"/>
		<path class="st1" d="M160.6,55.4h-2.3l-3.8-6.5h-0.1c0.1,1.2,0.1,2,0.1,2.5v4.1H153v-8.6h2.3l3.7,6.5h0c-0.1-1.1-0.1-1.9-0.1-2.4
			v-4.1h1.6V55.4z"/>
		<path class="st1" d="M169.3,50.6h3.4V55c-0.6,0.2-1.1,0.3-1.6,0.4c-0.5,0.1-1,0.1-1.5,0.1c-1.3,0-2.3-0.4-3-1.1
			c-0.7-0.8-1-1.9-1-3.3c0-1.4,0.4-2.5,1.2-3.3s1.9-1.2,3.3-1.2c0.9,0,1.7,0.2,2.6,0.5l-0.6,1.5c-0.6-0.3-1.3-0.5-2-0.5
			c-0.8,0-1.4,0.3-1.9,0.8s-0.7,1.2-0.7,2.1c0,0.9,0.2,1.7,0.6,2.1c0.4,0.5,0.9,0.7,1.7,0.7c0.4,0,0.8,0,1.2-0.1v-1.8h-1.6V50.6z"/>
		<path class="st0" d="M190,55.4l-1.1-2.7h-3.5l-1.1,2.7h-1l3.4-8.7h0.8l3.4,8.7H190z M188.6,51.8l-1-2.7c-0.1-0.3-0.3-0.8-0.4-1.2
			c-0.1,0.4-0.2,0.8-0.4,1.2l-1,2.7H188.6z"/>
		<path class="st0" d="M202.2,55.4H201l-4.7-7.2h0c0.1,0.8,0.1,1.6,0.1,2.3v4.9h-0.9v-8.6h1.1l4.7,7.2h0c0-0.1,0-0.4-0.1-1
			c0-0.6,0-1,0-1.2v-5h0.9V55.4z"/>
		<path class="st0" d="M214.7,51c0,1.4-0.4,2.5-1.2,3.3s-1.9,1.1-3.3,1.1h-2.4v-8.6h2.6c1.3,0,2.4,0.4,3.1,1.1S214.7,49.7,214.7,51z
			 M213.6,51c0-1.1-0.3-2-0.8-2.5c-0.6-0.6-1.4-0.9-2.5-0.9h-1.5v6.9h1.2c1.2,0,2.1-0.3,2.7-0.9S213.6,52.2,213.6,51z"/>
		<path class="st1" d="M231.2,53c0,0.8-0.3,1.4-0.8,1.8c-0.6,0.4-1.3,0.7-2.3,0.7c-0.9,0-1.7-0.2-2.4-0.5v-1.7
			c0.6,0.3,1.1,0.4,1.5,0.5c0.4,0.1,0.8,0.2,1.1,0.2c0.4,0,0.7-0.1,0.9-0.2c0.2-0.2,0.3-0.4,0.3-0.7c0-0.2,0-0.3-0.1-0.5
			s-0.2-0.3-0.4-0.4c-0.2-0.1-0.6-0.3-1.1-0.6c-0.5-0.2-0.9-0.5-1.2-0.7s-0.5-0.5-0.6-0.8s-0.2-0.7-0.2-1.1c0-0.8,0.3-1.4,0.8-1.8
			s1.2-0.7,2.1-0.7c0.4,0,0.9,0.1,1.3,0.2c0.4,0.1,0.8,0.3,1.3,0.4l-0.6,1.4c-0.5-0.2-0.8-0.3-1.1-0.4c-0.3-0.1-0.6-0.1-0.9-0.1
			c-0.3,0-0.6,0.1-0.8,0.2c-0.2,0.2-0.3,0.4-0.3,0.6c0,0.2,0,0.3,0.1,0.4s0.2,0.2,0.4,0.3c0.2,0.1,0.5,0.3,1.2,0.6
			c0.8,0.4,1.4,0.8,1.7,1.2S231.2,52.5,231.2,53z"/>
		<path class="st1" d="M241,55.4h-5v-8.6h5v1.5h-3.1v1.9h2.9v1.5h-2.9v2.2h3.1V55.4z"/>
		<path class="st1" d="M249.7,48.2c-0.7,0-1.2,0.3-1.6,0.8s-0.6,1.2-0.6,2.2c0,1.9,0.7,2.9,2.2,2.9c0.6,0,1.3-0.2,2.2-0.5v1.5
			c-0.7,0.3-1.5,0.4-2.4,0.4c-1.3,0-2.2-0.4-2.9-1.1c-0.7-0.8-1-1.9-1-3.3c0-0.9,0.2-1.7,0.5-2.4c0.3-0.7,0.8-1.2,1.4-1.6
			s1.3-0.5,2.2-0.5c0.8,0,1.7,0.2,2.5,0.6l-0.6,1.5c-0.3-0.2-0.6-0.3-1-0.4C250.4,48.2,250.1,48.2,249.7,48.2z"/>
		<path class="st1" d="M264.1,46.8v5.6c0,0.6-0.1,1.2-0.4,1.7s-0.7,0.8-1.2,1.1c-0.5,0.3-1.2,0.4-1.9,0.4c-1.1,0-2-0.3-2.6-0.9
			c-0.6-0.6-0.9-1.3-0.9-2.3v-5.6h1.8v5.3c0,0.7,0.1,1.2,0.4,1.5c0.3,0.3,0.7,0.5,1.3,0.5c0.6,0,1-0.2,1.3-0.5
			c0.3-0.3,0.4-0.8,0.4-1.5v-5.3H264.1z"/>
		<path class="st1" d="M271.2,52.1v3.3h-1.8v-8.6h2.5c1.2,0,2,0.2,2.6,0.6s0.8,1.1,0.8,1.9c0,0.5-0.1,1-0.4,1.4
			c-0.3,0.4-0.7,0.7-1.2,0.9c1.3,1.9,2.1,3.2,2.5,3.8h-2l-2.1-3.3H271.2z M271.2,50.6h0.6c0.6,0,1-0.1,1.3-0.3
			c0.3-0.2,0.4-0.5,0.4-0.9c0-0.4-0.1-0.7-0.4-0.9c-0.3-0.2-0.7-0.3-1.3-0.3h-0.6V50.6z"/>
		<path class="st1" d="M280.6,55.4v-8.6h1.8v8.6H280.6z"/>
		<path class="st1" d="M291.2,55.4h-1.8v-7.1H287v-1.5h6.5v1.5h-2.3V55.4z"/>
		<path class="st1" d="M300.8,50.3l1.8-3.6h2l-2.9,5.3v3.4h-1.8v-3.3l-2.9-5.3h2L300.8,50.3z"/>
	</g>
	<g>
		<path class="st0" d="M89.6,40.7c0.8,0.2,215,0,215,0"/>
		<path d="M149.9,41.3c-34.1,0-60.1,0-60.4-0.1l0.3-1l-0.1,0.5l0.1-0.5c2.4,0.2,212.8,0,214.9,0l0,1
			C282.4,41.3,205.4,41.3,149.9,41.3z"/>
	</g>
	<g>
		<path class="st0" d="M89.6,61.3c0.8,0.2,215,0,215,0"/>
		<path d="M149.9,61.9c-34.1,0-60.1,0-60.4-0.1l0.3-1l-0.1,0.5l0.1-0.5c2.4,0.2,212.8,0,214.9,0l0,1
			C282.4,61.9,205.4,61.9,149.9,61.9z"/>
	</g>
	<g>
		<path class="st1" d="M40,68.8C30.4,60.7,21.4,52,15.9,40.3c-5.7-12.1-2.5-25.8,7.5-33.8c9.9-7.9,23.9-7.8,33.8,0.2
			c9.9,8,12.8,21.8,7.2,33.9C60.3,49.6,49.2,62.5,40,68.8z M27.7,27.8c0.1,7,5.6,12.5,12.6,12.5c7.1,0,12.9-5.9,12.7-12.9
			c-0.2-6.8-6-12.4-12.9-12.3C33.1,15.2,27.6,20.9,27.7,27.8z"/>
		<g>
			<path class="st0" d="M80.1,68.5c0,10.9-38.4,11-40.1,11c-1.6,0-40.1-0.1-40.1-11c0-5.6,10.1-8.3,20.2-9.7
				c1.3,1.6,2.7,3.1,4.1,4.5c-9.6,1-15.6,2.9-18,4.3c-0.7,0.4-0.7,1.4,0,1.7c3.3,1.9,13.2,4.7,30,5c1.2,0,2.4,0,3.7,0
				c1.2,0,2.4,0,3.6,0c16.9-0.3,26.7-3.1,30.1-5c0.7-0.4,0.7-1.4,0-1.8c-2.4-1.4-8.3-3.2-17.7-4.2c1.4-1.5,2.7-3,4-4.5
				C70.1,60.2,80.1,62.9,80.1,68.5z"/>
		</g>
	</g>
</g>
</svg>
