<?xml version="1.0" encoding="utf-8"?>
<!-- Generator: Adobe Illustrator 26.1.0, SVG Export Plug-In . SVG Version: 6.00 Build 0)  -->
<svg version="1.1" id="Слой_1" xmlns="http://www.w3.org/2000/svg" xmlns:xlink="http://www.w3.org/1999/xlink" x="0px" y="0px"
	 viewBox="0 0 328.6 59.4" style="enable-background:new 0 0 328.6 59.4;" xml:space="preserve">
<style type="text/css">
	.st0{fill:#FFFFFF;}
	.st1{fill:#CDAD58;}
</style>
<g>
	<path id="Path__x23_4" class="st0" d="M9.7,35.8v21.5H2.1V2.1h14.8c4.3,0,7.7,1.1,10,3.3c2.3,2.2,3.5,5.2,3.5,9v8.8
		c0,6-2.3,9.9-6.9,11.6l8.8,22.4h-8.5l-7.9-21.5H9.7z M9.7,8.8v20.6h6.5c2.3,0,3.9-0.5,4.9-1.5c1-1,1.5-2.6,1.5-4.7v-8.2
		c0-4.1-2.1-6.1-6.4-6.1L9.7,8.8z M39.9,2.1H65v6.7H47.5V26h15.2v6.8H47.5v17.8H65v6.7H39.9V2.1z M72,13.9c0-3.9,1.3-6.8,3.9-9
		c2.6-2.1,6.5-3.2,11.8-3.2c3.5,0,6.7,0.4,9.6,1.2V10c-3.2-0.9-6.3-1.4-9.4-1.4c-3.1,0-5.2,0.5-6.4,1.5c-1.2,1-1.7,2.4-1.7,4.4V45
		c0,1.9,0.6,3.3,1.8,4.3c1.2,1,3.4,1.5,6.6,1.5c3.2,0,6.3-0.4,9.4-1.3v6.9c-2.8,0.9-6.1,1.3-9.9,1.3C77.2,57.7,72,53.6,72,45.5V13.9
		z M126.3,15c0-4.4-2.4-6.7-7.1-6.7c-4.7,0-7.1,2.2-7.1,6.7v29.4c0,4.5,2.4,6.7,7.1,6.7c4.7,0,7.1-2.2,7.1-6.7L126.3,15z
		 M104.5,14.7c0-4.1,1.2-7.3,3.7-9.8s6.1-3.7,11-3.7c4.9,0,8.5,1.2,11,3.7c2.5,2.5,3.7,5.7,3.7,9.7v30c0,4-1.2,7.2-3.7,9.7
		c-2.5,2.4-6.1,3.7-11,3.7c-4.8,0-8.5-1.2-11-3.7c-2.5-2.4-3.7-5.7-3.7-9.7V14.7z M166.9,2.1h7.6v55.1h-8.1
		c-8.5-21.7-14.1-36.2-16.7-43.3c0,0.6,0.1,1.8,0.3,3.7c0.4,4.7,0.7,10,0.7,15.7v23.8h-7.5V2.1h8.2c7.5,19.1,12.1,30.9,13.8,35.5
		c1.6,4.6,2.5,7.1,2.8,7.7c0-0.5-0.2-2.9-0.5-7.2c-0.3-4.3-0.5-8.5-0.5-12.5V2.1z M205.6,15c0-4.4-2.4-6.7-7.1-6.7
		c-4.7,0-7.1,2.2-7.1,6.7v29.4c0,4.5,2.4,6.7,7.1,6.7c4.7,0,7.1-2.2,7.1-6.7V15z M183.8,14.7c0-4.1,1.2-7.3,3.7-9.8
		c2.5-2.4,6.1-3.7,11-3.7c4.9,0,8.5,1.2,11,3.7c2.5,2.5,3.7,5.7,3.7,9.7v30c0,4-1.2,7.2-3.7,9.7c-2.5,2.4-6.1,3.7-11,3.7
		c-4.8,0-8.5-1.2-11-3.7c-2.5-2.4-3.7-5.7-3.7-9.7V14.7z"/>
	<g id="layer1">
		<path id="path1612" class="st1" d="M226.7,14.2c0-4,1.3-7.1,4-9.3c2.7-2.2,6.8-3.3,12.2-3.3c3.7,0,7.1,0.5,10.3,1.4v7.3
			c-3.3-1.1-6.7-1.6-10.3-1.6c-5.7,0-8.6,2.1-8.6,6.2v29.9c0,3.9,2.4,5.9,7.2,5.9c2.7,0,4.7-0.5,6-1.4V29.4h7.6v25
			c-4,2.2-8.4,3.3-13.3,3.3c-4.9,0-8.7-1-11.3-3c-2.6-2-3.9-5.1-3.9-9.1L226.7,14.2z M285.1,15c0-4.2-2.2-6.3-6.5-6.3h-6.4v23.7h6.4
			c4.3,0,6.5-2.1,6.5-6.3V15z M264.5,2h14.8c4.3,0,7.7,1.1,10,3.3c2.3,2.2,3.5,5.2,3.5,9.1v12.4c0,3.9-1.2,6.9-3.5,9.1
			c-2.3,2.2-5.6,3.3-10,3.3h-7.2v18.1h-7.6V2z M298.2,13.7c0-3.9,1.3-6.8,3.8-8.9c2.5-2.1,6.1-3.2,10.8-3.2c4.7,0,8.5,0.5,11.4,1.5
			v7.3c-2.9-1.1-6.5-1.7-10.7-1.7c-5,0-7.6,1.9-7.6,5.6v3.2c0,1.7,0.3,3.1,1,4.1c0.7,1,1.9,2,3.6,3l9.4,5.3c4.4,2.4,6.6,6,6.6,10.8
			v4.5c0,4-1.4,7-4.1,9.2c-2.8,2.1-6.7,3.2-11.7,3.2c-5,0-9-0.6-12.1-1.7v-7.3c3.6,1.3,7.3,1.9,11.3,1.9c5.9,0,8.9-2,8.9-6v-2.8
			c0-1.6-0.3-2.9-0.9-3.8c-0.6-0.9-1.7-1.8-3.3-2.6l-9.2-5c-4.8-2.6-7.2-6.5-7.2-11.6V13.7z"/>
	</g>
</g>
</svg>
