<?xml version="1.0" encoding="utf-8"?>
<!-- Generator: Adobe Illustrator 24.0.1, SVG Export Plug-In . SVG Version: 6.00 Build 0)  -->
<svg version="1.1" id="Слой_1" xmlns="http://www.w3.org/2000/svg" xmlns:xlink="http://www.w3.org/1999/xlink" x="0px" y="0px"
	 viewBox="0 0 38 50" style="enable-background:new 0 0 38 50;" xml:space="preserve">
<style type="text/css">
	.st0{fill:#E3072B;}
	.st1{fill:#FFFFFF;}
</style>
<g id="XMLID_12_">
	<path class="st0" d="M19,1C9.1,1,1,9.1,1,19c0,15,16.4,30,18,30c1.2,0,18-15,18-30C37,9.1,28.9,1,19,1z"/>
	<path class="st1" d="M19,50C16.4,50,0,34.3,0,19C0,8.5,8.5,0,19,0s19,8.5,19,19C38,34.2,21.1,50,19,50z M18.8,48L18.8,48L18.8,48z
		 M19.2,48L19.2,48L19.2,48z M19,2C9.6,2,2,9.6,2,19c0,13.5,14.2,27.6,17,28.9c2.4-1.4,17-15.2,17-28.9C36,9.6,28.4,2,19,2z"/>
</g>
<g>
	<g>
		<path class="st1" d="M11.2,9.6h9.5h0.3v0.2V27v0.2h-0.2h-3v-3.9h-3.5v3.9h-3H11V27V9.8V9.6H11.2z M15.1,11.4h-2.2v2.2H15
			L15.1,11.4L15.1,11.4z M19,11.4h-2.2v2.2H19V11.4z M15.1,15.4h-2.2v2.2H15C15.1,17.6,15.1,15.4,15.1,15.4z M19,15.4h-2.2v2.2H19
			V15.4z M15.1,19.5h-2.2v2.2H15C15.1,21.6,15.1,19.5,15.1,19.5z M19,19.5h-2.2v2.2H19V19.5z"/>
		<path class="st1" d="M19.2,17.8h9.5H29V18v9v0.2h-0.2h-9.6H19V27v-9v-0.2C19,17.8,19.2,17.8,19.2,17.8z M23.1,19.4H21v2.2h2.2
			V19.4z M27.2,19.4H25v2.2h2.2V19.4z M23.1,23.4H21v2.2h2.2V23.4z M27.2,23.4H25v2.2h2.2V23.4z"/>
	</g>
</g>
</svg>
