<?xml version="1.0" encoding="utf-8"?>
<!-- Generator: Adobe Illustrator 24.0.1, SVG Export Plug-In . SVG Version: 6.00 Build 0)  -->
<svg version="1.1" id="Слой_1" xmlns="http://www.w3.org/2000/svg" xmlns:xlink="http://www.w3.org/1999/xlink" x="0px" y="0px"
	 viewBox="0 0 38 50" style="enable-background:new 0 0 38 50;" xml:space="preserve">
<style type="text/css">
	.st0{fill:#E3072B;}
	.st1{fill:#FFFFFF;}
</style>
<g id="XMLID_12_">
	<path class="st0" d="M19,1C9.1,1,1,9.1,1,19c0,15,16.4,30,18,30c1.2,0,18-15,18-30C37,9.1,28.9,1,19,1z"/>
	<path class="st1" d="M19,50C16.4,50,0,34.3,0,19C0,8.5,8.5,0,19,0s19,8.5,19,19C38,34.2,21.1,50,19,50z M18.8,48L18.8,48L18.8,48z
		 M19.2,48L19.2,48L19.2,48z M19,2C9.6,2,2,9.6,2,19c0,13.5,14.2,27.6,17,28.9c2.4-1.4,17-15.2,17-28.9C36,9.6,28.4,2,19,2z"/>
</g>
<path class="st1" d="M28.2,21.8h-0.8v-1.2c0-1.6-1.3-2.9-2.9-2.9h-4.8V15h0.8c0.4,0,0.8-0.4,0.8-0.8v-3c0-0.4-0.4-0.8-0.8-0.8h-3
	c-0.4,0-0.8,0.4-0.8,0.8v3c0,0.4,0.4,0.8,0.8,0.8h0.8v2.7h-4.8c-1.6,0-2.9,1.3-2.9,2.9v1.2H9.8c-0.4,0-0.8,0.4-0.8,0.8v3
	c0,0.4,0.4,0.8,0.8,0.8h3c0.4,0,0.8-0.4,0.8-0.8v-3c0-0.4-0.4-0.8-0.8-0.8H12v-1.2c0-0.8,0.6-1.4,1.4-1.4h4.8v2.6h-0.8
	c-0.4,0-0.8,0.4-0.8,0.8v3c0,0.4,0.4,0.8,0.8,0.8h3c0.4,0,0.8-0.4,0.8-0.8v-3c0-0.4-0.4-0.8-0.8-0.8h-0.8v-2.6h4.8
	c0.8,0,1.4,0.6,1.4,1.4v1.2h-0.8c-0.4,0-0.8,0.4-0.8,0.8v3c0,0.4,0.4,0.8,0.8,0.8h3c0.4,0,0.8-0.4,0.8-0.8v-3
	C29,22.2,28.7,21.8,28.2,21.8z"/>
</svg>
