<?xml version="1.0" encoding="utf-8"?>
<!-- Generator: Adobe Illustrator 24.0.1, SVG Export Plug-In . SVG Version: 6.00 Build 0)  -->
<svg version="1.1" id="Слой_1" xmlns="http://www.w3.org/2000/svg" xmlns:xlink="http://www.w3.org/1999/xlink" x="0px" y="0px"
	 viewBox="0 0 38 50" style="enable-background:new 0 0 38 50;" xml:space="preserve">
<style type="text/css">
	.st0{fill:#E3072B;}
	.st1{fill:#FFFFFF;}
	.st2{fill-rule:evenodd;clip-rule:evenodd;fill:#FFFFFF;}
</style>
<g id="XMLID_12_">
	<path class="st0" d="M19,1C9.1,1,1,9.1,1,19c0,15,16.4,30,18,30c1.2,0,18-15,18-30C37,9.1,28.9,1,19,1z"/>
	<path class="st1" d="M19,50C16.4,50,0,34.3,0,19C0,8.5,8.5,0,19,0s19,8.5,19,19C38,34.2,21.1,50,19,50z M18.8,48L18.8,48L18.8,48z
		 M19.2,48L19.2,48L19.2,48z M19,2C9.6,2,2,9.6,2,19c0,13.5,14.2,27.6,17,28.9c2.4-1.4,17-15.2,17-28.9C36,9.6,28.4,2,19,2z"/>
</g>
<g>
	<path class="st2" d="M21.6,16.5v-0.8h1.1v0.8H21.6z M16.7,15.7v0.8h-1.1v-0.8H16.7z M18.2,15.7v0.8h-1.1v-0.8H18.2z M18.6,15.7h1.1
		v0.8h-1.1V15.7z M20.1,15.7h1.1v0.8h-1.1C20.1,16.5,20.1,15.7,20.1,15.7z M24.3,19.4v-0.8h1.1v0.8H24.3z M22.8,19.4v-0.8h1.1v0.8
		H22.8z M21.3,19.4v-0.8h1.1v0.8H21.3z M19.8,19.4v-0.8h1.1v0.8H19.8z M18.3,19.4v-0.8h1.1v0.8H18.3z M16.8,18.6h1.1v0.8h-1.1
		C16.8,19.4,16.8,18.6,16.8,18.6z M15,18.6v0.8h-1.1v-0.8H15z M15.4,18.6h1.1v0.8h-1.1V18.6z M26.3,17.4H11.3v1.1h1.1l-0.6,1.3h15.7
		L26.3,17.4z M24.3,22.7v-0.8h1.1v0.8H24.3z M22.8,22.7v-0.8h1.1v0.8H22.8z M21.3,22.7v-0.8h1.1v0.8H21.3z M30,20.4H10l1.6,4.7h14.1
		L30,20.4z M21.1,14.4h-3.8v-2.7h-0.5v2.7h-3.7v1.1h1.2l-0.6,1.3h11l-1.3-2.4h-1.8v-1.6h-0.5L21.1,14.4L21.1,14.4z"/>
</g>
</svg>
