<?xml version="1.0" encoding="utf-8"?>
<!-- Generator: Adobe Illustrator 24.0.1, SVG Export Plug-In . SVG Version: 6.00 Build 0)  -->
<svg version="1.1" id="Слой_1" xmlns="http://www.w3.org/2000/svg" xmlns:xlink="http://www.w3.org/1999/xlink" x="0px" y="0px"
	 viewBox="0 0 38 50" style="enable-background:new 0 0 38 50;" xml:space="preserve">
<style type="text/css">
	.st0{fill:#E3072B;}
	.st1{fill:#FFFFFF;}
</style>
<g id="XMLID_12_">
	<path class="st0" d="M19,1C9.1,1,1,9.1,1,19c0,15,16.4,30,18,30c1.2,0,18-15,18-30C37,9.1,28.9,1,19,1z"/>
	<path class="st1" d="M19,50C16.4,50,0,34.3,0,19C0,8.5,8.5,0,19,0s19,8.5,19,19C38,34.2,21.1,50,19,50z M18.8,48L18.8,48L18.8,48z
		 M19.2,48L19.2,48L19.2,48z M19,2C9.6,2,2,9.6,2,19c0,13.5,14.2,27.6,17,28.9c2.4-1.4,17-15.2,17-28.9C36,9.6,28.4,2,19,2z"/>
</g>
<g>
	<polygon class="st1" points="16.6,26.9 14.8,26.9 14.8,27.9 23.1,27.9 23.1,26.9 21.3,26.9 	"/>
	<path class="st1" d="M10.6,15.1l0.6,0.1l0.4-1.6v0v0l1.1-4.4L12.2,9C11,8.7,9.8,9.4,9.5,10.6c0,0,0,0,0,0l-0.5,1.8
		C8.8,13.6,9.5,14.8,10.6,15.1z"/>
	<polygon class="st1" points="17,26.3 20.9,26.3 20,16.1 17.9,15.6 	"/>
	<rect x="19.4" y="6.1" transform="matrix(0.2497 -0.9683 0.9683 0.2497 1.4698 30.7443)" class="st1" width="2.3" height="16.5"/>
	<path class="st1" d="M11.6,17h-0.9v-1.5h-0.6V17H9.4c-0.2,0-0.3,0.1-0.3,0.3v3.1c0,0.2,0.1,0.3,0.3,0.3h0.8v1.8H9.4
		c-0.2,0-0.3,0.1-0.3,0.3v3.1c0,0.2,0.1,0.3,0.3,0.3h2.2c0.2,0,0.3-0.1,0.3-0.3v-3.1c0-0.2-0.1-0.3-0.3-0.3h-0.9v-1.8h0.9
		c0.2,0,0.3-0.1,0.3-0.3v-3.1C11.9,17.1,11.8,17,11.6,17z"/>
	<path class="st1" d="M28.7,21.5h-1.2v-3.9h-0.6v3.9h-1.1c-0.2,0-0.3,0.1-0.3,0.3v4.1c0,0.2,0.2,0.3,0.3,0.3h2.9
		c0.2,0,0.3-0.1,0.3-0.3v-4.1C29,21.6,28.9,21.5,28.7,21.5z"/>
</g>
</svg>
