<?xml version="1.0" encoding="utf-8"?>
<!-- Generator: Adobe Illustrator 24.0.1, SVG Export Plug-In . SVG Version: 6.00 Build 0)  -->
<svg version="1.1" id="Слой_1" xmlns="http://www.w3.org/2000/svg" xmlns:xlink="http://www.w3.org/1999/xlink" x="0px" y="0px"
	 viewBox="0 0 38 50" style="enable-background:new 0 0 38 50;" xml:space="preserve">
<style type="text/css">
	.st0{fill:#E3072B;}
	.st1{fill:#FFFFFF;}
</style>
<g>
	<g id="XMLID_12_">
		<path class="st0" d="M19,1C9.1,1,1,9.1,1,19c0,15,16.4,30,18,30c1.2,0,18-15,18-30C37,9.1,28.9,1,19,1z"/>
		<path class="st1" d="M19,50C16.4,50,0,34.3,0,19C0,8.5,8.5,0,19,0s19,8.5,19,19C38,34.2,21.1,50,19,50z M18.8,48L18.8,48L18.8,48z
			 M19.2,48L19.2,48L19.2,48z M19,2C9.6,2,2,9.6,2,19c0,13.5,14.2,27.6,17,28.9c2.4-1.4,17-15.2,17-28.9C36,9.6,28.4,2,19,2z"/>
	</g>
	<g>
		<path class="st1" d="M10.7,17.9l1-0.8l0,0l6.9-5.2c0.3-0.2,0.6-0.2,0.9,0l6.9,5.2l0,0l1,0.8c0.3,0.2,0.8,0.2,1-0.1
			c0.2-0.3,0.2-0.8-0.1-1l-1.9-1.4v-2.4c0-0.4-0.3-0.7-0.7-0.7c-0.4,0-0.7,0.3-0.7,0.7v1.3l-5.4-4.1c-0.3-0.2-0.6-0.2-0.9,0
			l-8.8,6.6c-0.3,0.2-0.4,0.7-0.1,1C9.9,18.1,10.3,18.1,10.7,17.9z"/>
		<path class="st1" d="M19,13.5L11.7,19v7.1c0,0.4,0.3,0.7,0.7,0.7h4.4c0.4,0,0.7-0.3,0.7-0.7V21h2.9v5.1c0,0.4,0.3,0.7,0.7,0.7h4.4
			c0.4,0,0.7-0.3,0.7-0.7V19L19,13.5z"/>
	</g>
</g>
</svg>
