<?xml version="1.0" encoding="utf-8"?>
<!-- Generator: Adobe Illustrator 24.0.1, SVG Export Plug-In . SVG Version: 6.00 Build 0)  -->
<svg version="1.1" id="Слой_1" xmlns="http://www.w3.org/2000/svg" xmlns:xlink="http://www.w3.org/1999/xlink" x="0px" y="0px"
	 viewBox="0 0 38 50" style="enable-background:new 0 0 38 50;" xml:space="preserve">
<style type="text/css">
	.st0{fill:#E3072B;}
	.st1{fill:#FFFFFF;}
</style>
<g id="XMLID_12_">
	<path class="st0" d="M19,1C9.1,1,1,9.1,1,19c0,15,16.4,30,18,30c1.2,0,18-15,18-30C37,9.1,28.9,1,19,1z"/>
	<path class="st1" d="M19,50C16.4,50,0,34.3,0,19C0,8.5,8.5,0,19,0s19,8.5,19,19C38,34.2,21.1,50,19,50z M18.8,48L18.8,48L18.8,48z
		 M19.2,48L19.2,48L19.2,48z M19,2C9.6,2,2,9.6,2,19c0,13.5,14.2,27.6,17,28.9c2.4-1.4,17-15.2,17-28.9C36,9.6,28.4,2,19,2z"/>
</g>
<path class="st1" d="M27.7,17.3h-5.4v-5.3c0-0.4-0.3-0.8-0.8-0.8h-0.8v-0.6c0-0.4-0.3-0.7-0.7-0.7h-0.6V8.9c0-0.3-0.3-0.5-0.5-0.5
	c-0.3,0-0.5,0.2-0.5,0.5v0.9h-0.6c-0.4,0-0.7,0.3-0.7,0.7v0.6h-0.8c-0.4,0-0.8,0.3-0.8,0.8v5.3h-5.3c-0.4,0-0.8,0.3-0.8,0.8v9.9
	c0,0.3,0.2,0.5,0.5,0.5h18c0.3,0,0.5-0.2,0.5-0.5V18C28.5,17.6,28.1,17.3,27.7,17.3z M12.1,26.2c0,0.3-0.2,0.5-0.5,0.5
	s-0.5-0.2-0.5-0.5v-0.7c0-0.3,0.2-0.5,0.5-0.5s0.5,0.2,0.5,0.5V26.2z M12.1,23.1c0,0.3-0.2,0.5-0.5,0.5s-0.5-0.3-0.5-0.5v-0.7
	c0-0.3,0.2-0.5,0.5-0.5s0.5,0.2,0.5,0.5V23.1z M12.1,20.1c0,0.3-0.2,0.5-0.5,0.5s-0.5-0.2-0.5-0.5v-0.7c0-0.3,0.2-0.5,0.5-0.5
	s0.5,0.2,0.5,0.5V20.1z M14.7,26.2c0,0.3-0.2,0.5-0.5,0.5s-0.5-0.2-0.5-0.5v-0.7c0-0.3,0.2-0.5,0.5-0.5s0.5,0.2,0.5,0.5V26.2z
	 M14.7,23.1c0,0.3-0.2,0.5-0.5,0.5s-0.5-0.2-0.5-0.5v-0.7c0-0.3,0.2-0.5,0.5-0.5s0.5,0.2,0.5,0.5V23.1z M14.7,20.1
	c0,0.3-0.2,0.5-0.5,0.5s-0.5-0.2-0.5-0.5v-0.7c0-0.3,0.2-0.5,0.5-0.5s0.5,0.2,0.5,0.5V20.1z M17.2,13.2c0-0.3,0.2-0.5,0.5-0.5
	s0.5,0.2,0.5,0.5V14c0,0.3-0.2,0.5-0.5,0.5s-0.5-0.2-0.5-0.5V13.2z M17.2,16.3c0-0.3,0.2-0.5,0.5-0.5s0.5,0.2,0.5,0.5V17
	c0,0.3-0.2,0.5-0.5,0.5s-0.5-0.2-0.5-0.5V16.3z M17.2,19.3c0-0.3,0.2-0.5,0.5-0.5s0.5,0.2,0.5,0.5v0.7c0,0.3-0.2,0.5-0.5,0.5
	s-0.5-0.2-0.5-0.5V19.3z M17.2,22.4c0-0.3,0.2-0.5,0.5-0.5s0.5,0.2,0.5,0.5v0.7c0,0.3-0.2,0.5-0.5,0.5s-0.5-0.3-0.5-0.5V22.4z
	 M18.5,27.4h-1.3v-2.2c0-0.2,0.1-0.3,0.3-0.3h1L18.5,27.4L18.5,27.4z M20.8,27.4h-1.3v-2.5h1c0.2,0,0.3,0.1,0.3,0.3V27.4z
	 M20.8,23.1c0,0.3-0.2,0.5-0.5,0.5c-0.3,0-0.5-0.2-0.5-0.5v-0.7c0-0.3,0.2-0.5,0.5-0.5c0.3,0,0.5,0.2,0.5,0.5V23.1z M20.8,20.1
	c0,0.3-0.2,0.5-0.5,0.5c-0.3,0-0.5-0.2-0.5-0.5v-0.7c0-0.3,0.2-0.5,0.5-0.5c0.3,0,0.5,0.2,0.5,0.5V20.1z M20.8,17
	c0,0.3-0.2,0.5-0.5,0.5c-0.3,0-0.5-0.2-0.5-0.5v-0.7c0-0.3,0.2-0.5,0.5-0.5c0.3,0,0.5,0.2,0.5,0.5V17z M20.8,14
	c0,0.3-0.2,0.5-0.5,0.5c-0.3,0-0.5-0.2-0.5-0.5v-0.7c0-0.3,0.2-0.5,0.5-0.5c0.3,0,0.5,0.2,0.5,0.5V14z M24.3,26.2
	c0,0.3-0.2,0.5-0.5,0.5c-0.3,0-0.5-0.2-0.5-0.5v-0.7c0-0.3,0.2-0.5,0.5-0.5c0.3,0,0.5,0.2,0.5,0.5V26.2z M24.3,23.1
	c0,0.3-0.2,0.5-0.5,0.5c-0.3,0-0.5-0.3-0.5-0.5v-0.7c0-0.3,0.2-0.5,0.5-0.5c0.3,0,0.5,0.2,0.5,0.5V23.1z M24.3,20.1
	c0,0.3-0.2,0.5-0.5,0.5c-0.3,0-0.5-0.2-0.5-0.5v-0.7c0-0.3,0.2-0.5,0.5-0.5c0.3,0,0.5,0.2,0.5,0.5V20.1z M26.9,26.2
	c0,0.3-0.2,0.5-0.5,0.5c-0.3,0-0.5-0.2-0.5-0.5v-0.7c0-0.3,0.2-0.5,0.5-0.5c0.3,0,0.5,0.2,0.5,0.5V26.2z M26.9,23.1
	c0,0.3-0.2,0.5-0.5,0.5c-0.3,0-0.5-0.2-0.5-0.5v-0.7c0-0.3,0.2-0.5,0.5-0.5c0.3,0,0.5,0.2,0.5,0.5V23.1z M26.9,20.1
	c0,0.3-0.2,0.5-0.5,0.5c-0.3,0-0.5-0.2-0.5-0.5v-0.7c0-0.3,0.2-0.5,0.5-0.5c0.3,0,0.5,0.2,0.5,0.5V20.1z"/>
</svg>
