<?xml version="1.0" encoding="utf-8"?>
<!-- Generator: Adobe Illustrator 24.0.1, SVG Export Plug-In . SVG Version: 6.00 Build 0)  -->
<svg version="1.1" id="Слой_1" xmlns="http://www.w3.org/2000/svg" xmlns:xlink="http://www.w3.org/1999/xlink" x="0px" y="0px"
	 viewBox="0 0 38 50" style="enable-background:new 0 0 38 50;" xml:space="preserve">
<style type="text/css">
	.st0{fill:#E3072B;}
	.st1{fill:#FFFFFF;}
	.st2{fill-rule:evenodd;clip-rule:evenodd;fill:#FFFFFF;}
</style>
<g id="XMLID_12_">
	<path class="st0" d="M19,1C9.1,1,1,9.1,1,19c0,15,16.4,30,18,30c1.2,0,18-15,18-30C37,9.1,28.9,1,19,1z"/>
	<path class="st1" d="M19,50C16.4,50,0,34.3,0,19C0,8.5,8.5,0,19,0s19,8.5,19,19C38,34.2,21.1,50,19,50z M18.8,48L18.8,48L18.8,48z
		 M19.2,48L19.2,48L19.2,48z M19,2C9.6,2,2,9.6,2,19c0,13.5,14.2,27.6,17,28.9c2.4-1.4,17-15.2,17-28.9C36,9.6,28.4,2,19,2z"/>
</g>
<g>
	<path class="st2" d="M17.9,17.6v6.2c0,4.5-6.7,4.5-6.7,0v-6.2c-0.7-0.8-1.2-1.9-1.2-3c0-1.6,0.9-3.1,2.2-3.9v2.8l2.3,2.1l2.3-2.1
		v-2.8c1.3,0.8,2.2,2.2,2.2,3.9C19.1,15.7,18.6,16.8,17.9,17.6L17.9,17.6z M21.3,13H28V9.7h-5.4L21.3,11L21.3,13L21.3,13z
		 M22.3,17.3H27v7.4c0,3.1-4.7,3.1-4.7,0V17.3L22.3,17.3z M25.8,13.5v3.3h-2.3v-3.3H25.8L25.8,13.5z M12.4,19.7c0-0.7,1-0.7,1,0v4.8
		c0,0.7-1,0.7-1,0V19.7L12.4,19.7z M15.6,19.7c0-0.7,1-0.7,1,0v4.8c0,0.7-1,0.7-1,0V19.7L15.6,19.7z M14,19.7c0-0.7,1-0.7,1,0v4.8
		c0,0.7-1,0.7-1,0V19.7L14,19.7z"/>
</g>
</svg>
