<?xml version="1.0" encoding="utf-8"?>
<!-- Generator: Adobe Illustrator 24.0.1, SVG Export Plug-In . SVG Version: 6.00 Build 0)  -->
<svg version="1.1" id="Слой_1" xmlns="http://www.w3.org/2000/svg" xmlns:xlink="http://www.w3.org/1999/xlink" x="0px" y="0px"
	 viewBox="0 0 38 50" style="enable-background:new 0 0 38 50;" xml:space="preserve">
<style type="text/css">
	.st0{fill:#E3072B;}
	.st1{fill:#FFFFFF;}
</style>
<g id="XMLID_12_">
	<path class="st0" d="M19,1C9.1,1,1,9.1,1,19c0,15,16.4,30,18,30c1.2,0,18-15,18-30C37,9.1,28.9,1,19,1z"/>
	<path class="st1" d="M19,50C16.4,50,0,34.3,0,19C0,8.5,8.5,0,19,0s19,8.5,19,19C38,34.2,21.1,50,19,50z M18.8,48L18.8,48L18.8,48z
		 M19.2,48L19.2,48L19.2,48z M19,2C9.6,2,2,9.6,2,19c0,13.5,14.2,27.6,17,28.9c2.4-1.4,17-15.2,17-28.9C36,9.6,28.4,2,19,2z"/>
</g>
<g>
	<polygon class="st1" points="19,9.9 9,13.9 9,26.9 11,26.9 11,15.9 27,15.9 27,26.9 29,26.9 29,13.9 	"/>
	<path class="st1" d="M26.2,23.8c0-0.1,0-0.2-0.1-0.3c-0.1-0.1-0.2-0.1-0.3-0.1c-0.5-0.1-1.1-0.1-1.6-0.2c-0.9-0.1-1.7-0.2-2.6-0.3
		c-0.2,0-0.3,0-0.5-0.1c-0.3-0.4-0.6-0.8-1.1-1c-0.2-0.1-0.4-0.2-0.7-0.3v-1.3c0-0.2-0.2-0.4-0.4-0.4c-0.2,0-0.4,0.2-0.4,0.4v1.3
		c0,0-0.1,0-0.1,0c-0.5,0.1-1,0.5-1.3,0.9c-0.1,0.1-0.2,0.2-0.3,0.4c-0.5,0.1-1,0.1-1.5,0.2c-0.3,0-0.7,0.1-1,0.1l0,0
		c-0.1,0-0.1,0-0.2,0l0,0c-0.4,0.1-0.9,0.1-1.3,0.2c-0.2,0-0.4,0-0.6,0.1c-0.1,0-0.2,0-0.3,0.1c-0.1,0.1-0.1,0.2-0.1,0.3
		c0,0.1,0,0.2,0.1,0.3c0.1,0.1,0.2,0.1,0.3,0.1c0.3,0,0.7-0.1,1-0.1c0,0,0,0,0,0.1c0,0.2,0,0.4,0.2,0.6c0.3,0.4,0.7,0.6,1.2,0.5
		c0.5-0.1,0.9-0.6,0.9-1.1l0,0c0,0,0,0,0,0c0,0,0,0,0,0c0-0.1,0-0.3-0.1-0.4c0.3,0,0.6-0.1,0.9-0.1c0,0,0,0,0,0
		c0,0.1-0.1,0.2-0.1,0.3c-0.1,0.6-0.1,1.2,0.1,1.7c0.5,1,1.9,1.2,2.9,1.2c0.6,0,1.1-0.2,1.6-0.5c0.4-0.3,0.7-0.7,0.8-1.2
		c0-0.1,0-0.3,0-0.4v0c0-0.2,0-0.4,0-0.5c0,0,0-0.1,0-0.1c0,0,0-0.1,0-0.1c0,0,0,0,0,0c0,0,0-0.1,0-0.1c0,0,0,0,0-0.1
		c0,0,0-0.1,0-0.1c0,0,0,0,0-0.1c0.3,0,0.6,0.1,0.9,0.1c0,0.1-0.1,0.2-0.1,0.3c0,0.2,0,0.4,0.2,0.6c0.3,0.4,0.7,0.6,1.2,0.5
		c0.5-0.1,0.9-0.6,0.9-1.1l0,0c0,0,0,0,0,0c0,0,0,0,0,0c0,0,0-0.1,0-0.1l0,0c0,0,0,0,0,0c0.2,0,0.4,0,0.6,0.1c0.2,0,0.4,0.1,0.6,0.1
		c0.1,0,0.2-0.1,0.3-0.1C26.2,24.1,26.2,23.9,26.2,23.8z M20.2,23.5c-0.2,0.3-0.5,0.5-0.9,0.5c-0.2,0-0.5,0-0.7,0
		c-0.1,0-0.2,0-0.2,0c-0.3,0-0.6-0.2-0.8-0.5c-0.1-0.2,0-0.5,0.2-0.6c0.2-0.1,0.5,0,0.6,0.2c0,0,0,0,0,0c0,0,0,0,0,0c0,0,0,0,0,0
		c0,0,0,0,0,0c0.1,0,0.3,0,0.5,0s0.3,0,0.5,0c0,0,0,0,0,0c0,0,0,0,0,0c0,0,0,0,0,0c0,0,0,0,0,0l0,0c0,0,0,0,0,0
		c0.1-0.2,0.4-0.3,0.6-0.2C20.3,23,20.3,23.3,20.2,23.5z"/>
	<rect x="11.8" y="16.6" class="st1" width="14.5" height="0.9"/>
	<rect x="11.8" y="18.2" class="st1" width="14.5" height="0.9"/>
</g>
</svg>
