<?xml version="1.0" encoding="utf-8"?>
<!-- Generator: Adobe Illustrator 24.0.1, SVG Export Plug-In . SVG Version: 6.00 Build 0)  -->
<svg version="1.1" id="Слой_1" xmlns="http://www.w3.org/2000/svg" xmlns:xlink="http://www.w3.org/1999/xlink" x="0px" y="0px"
	 viewBox="0 0 54 54" style="enable-background:new 0 0 54 54;" xml:space="preserve">
<style type="text/css">
	.st0{fill:#E3072B;}
	.st1{fill:#FFFFFF;}
</style>
<g id="XMLID_481_">
	<path class="st0" d="M27,3C17.1,3,9,11.1,9,21c0,15,16.4,30,18,30c1.2,0,18-15,18-30C45,11.1,36.9,3,27,3z"/>
	<path class="st1" d="M27,52C24.4,52,8,36.3,8,21C8,10.5,16.5,2,27,2s19,8.5,19,19C46,36.2,29.1,52,27,52z M26.8,50L26.8,50L26.8,50
		z M27.2,50L27.2,50L27.2,50z M27,4c-9.4,0-17,7.6-17,17c0,13.5,14.2,27.6,17,28.9c2.4-1.4,17-15.2,17-28.9C44,11.6,36.4,4,27,4z"/>
</g>
<path id="XMLID_1278_" class="st1" d="M26.2,29.9l4.5-4.5c0.9-0.9,0.8-2.2-0.1-3.1l-0.5-0.5l1-1c0.1-0.1,0.1-0.2,0.1-0.3v-1.4
	c0-0.1,0.1-0.2,0.2-0.2h1.3c0.3,0,0.6-0.2,0.6-0.6v-1.2c0-0.1,0.1-0.2,0.2-0.2h1.4c0.1,0,0.3,0,0.3-0.1l0.7-0.7
	C36,16,36,15.9,36,15.8v-2.7c0-0.1-0.1-0.2-0.2-0.2L33.1,13C33,13,33,13.2,33,13.2l-5.7,5.7l-0.8-0.8c-0.9-0.9-1.9-0.7-2.8,0.2
	l-4.5,4.5c-0.9,0.9-1.4,2.2-0.6,3.1l4.2,4.2C23.7,31,25.4,30.8,26.2,29.9z M26.2,25.4c-0.7,0.7-1.9,0.7-2.6,0s-0.7-1.9,0-2.6
	s1.9-0.7,2.6,0C27,23.5,27,24.7,26.2,25.4z"/>
</svg>
