<?xml version="1.0" encoding="utf-8"?>
<!-- Generator: Adobe Illustrator 24.0.1, SVG Export Plug-In . SVG Version: 6.00 Build 0)  -->
<svg version="1.1" id="Слой_1" xmlns="http://www.w3.org/2000/svg" xmlns:xlink="http://www.w3.org/1999/xlink" x="0px" y="0px"
	 viewBox="0 0 54 54" style="enable-background:new 0 0 54 54;" xml:space="preserve">
<style type="text/css">
	.st0{fill:#B3B3B3;}
	.st1{fill:#FFFFFF;}
</style>
<text transform="matrix(1 0 0 1 297.6377 420.9449)" style="font-family:'MyriadPro-Regular'; font-size:12px;">CCCCCC</text>
<g id="XMLID_485_">
	<path class="st0" d="M27,1.1C16.3,1.1,7.6,9.8,7.6,20.5c0,16.2,17.7,32.4,19.4,32.4c1.4,0,19.4-16.2,19.4-32.4
		C46.4,9.8,37.7,1.1,27,1.1z"/>
	<path class="st1" d="M27,54C24.2,54,6.5,37,6.5,20.5C6.5,9.2,15.7,0,27,0s20.5,9.2,20.5,20.5C47.5,37,29.3,54,27,54z M26.8,51.9
		L26.8,51.9L26.8,51.9z M27.2,51.9L27.2,51.9L27.2,51.9z M27,2.2c-10.1,0-18.4,8.2-18.4,18.4C8.6,35.1,24,50.3,27,51.8
		c2.6-1.6,18.4-16.4,18.4-31.3C45.4,10.4,37.1,2.2,27,2.2z"/>
</g>
<path id="XMLID_1278_" class="st1" d="M26.3,27.9l4.5-4.5c0.9-0.9,0.8-2.2-0.1-3.1l-0.5-0.5l1-1c0.1-0.1,0.1-0.2,0.1-0.3v-1.4
	c0-0.1,0.1-0.2,0.2-0.2h1.3c0.3,0,0.6-0.2,0.6-0.6v-1.2c0-0.1,0.1-0.2,0.2-0.2H35c0.1,0,0.3,0,0.3-0.1l0.7-0.7
	c0.1-0.1,0.1-0.2,0.1-0.3v-2.7c0-0.1-0.1-0.2-0.2-0.2L33.2,11c-0.1,0-0.1,0.2-0.1,0.2l-5.7,5.7l-0.8-0.8c-0.9-0.9-1.9-0.7-2.8,0.2
	l-4.5,4.5c-0.9,0.9-1.4,2.2-0.6,3.1l4.2,4.2C23.8,29,25.5,28.8,26.3,27.9z M26.3,23.4c-0.7,0.7-1.9,0.7-2.6,0s-0.7-1.9,0-2.6
	s1.9-0.7,2.6,0C27.1,21.5,27.1,22.7,26.3,23.4z"/>
</svg>
