<?xml version="1.0" encoding="utf-8"?>
<!-- Generator: Adobe Illustrator 24.0.1, SVG Export Plug-In . SVG Version: 6.00 Build 0)  -->
<svg version="1.1" id="Слой_1" xmlns="http://www.w3.org/2000/svg" xmlns:xlink="http://www.w3.org/1999/xlink" x="0px" y="0px"
	 viewBox="0 0 38 50" style="enable-background:new 0 0 38 50;" xml:space="preserve">
<style type="text/css">
	.st0{fill:#E3072B;}
	.st1{fill:#FFFFFF;}
</style>
<g id="XMLID_12_">
	<path class="st0" d="M19,1C9.1,1,1,9.1,1,19c0,15,16.4,30,18,30c1.2,0,18-15,18-30C37,9.1,28.9,1,19,1z"/>
	<path class="st1" d="M19,50C16.4,50,0,34.3,0,19C0,8.5,8.5,0,19,0s19,8.5,19,19C38,34.2,21.1,50,19,50z M18.8,48L18.8,48L18.8,48z
		 M19.2,48L19.2,48L19.2,48z M19,2C9.6,2,2,9.6,2,19c0,13.5,14.2,27.6,17,28.9c2.4-1.4,17-15.2,17-28.9C36,9.6,28.4,2,19,2z"/>
</g>
<g>
	<path class="st1" d="M11.5,12.4v4c0,1.1,0.9,2,2,2h4v3c0,0.6-0.4,1-1,1h-4.2c-0.4-1.2-1.5-2-2.8-2v6c1.3,0,2.4-0.8,2.8-2h4.2
		c1.7,0,3-1.3,3-3v-3h6v-8h-12C12.4,10.4,11.5,11.3,11.5,12.4z M22.5,12.4c0.6,0,1,0.4,1,1s-0.4,1-1,1s-1-0.4-1-1
		S21.9,12.4,22.5,12.4z"/>
	<rect x="26.5" y="12.4" class="st1" width="2" height="4"/>
</g>
</svg>
