<?xml version="1.0" encoding="utf-8"?>
<!-- Generator: Adobe Illustrator 24.0.1, SVG Export Plug-In . SVG Version: 6.00 Build 0)  -->
<svg version="1.1" id="Слой_1" xmlns="http://www.w3.org/2000/svg" xmlns:xlink="http://www.w3.org/1999/xlink" x="0px" y="0px"
	 viewBox="0 0 38 50" style="enable-background:new 0 0 38 50;" xml:space="preserve">
<style type="text/css">
	.st0{fill:#E3072B;}
	.st1{fill:#FFFFFF;}
</style>
<g id="XMLID_12_">
	<path class="st0" d="M19,1C9.1,1,1,9.1,1,19c0,15,16.4,30,18,30c1.2,0,18-15,18-30C37,9.1,28.9,1,19,1z"/>
	<path class="st1" d="M19,50C16.4,50,0,34.3,0,19C0,8.5,8.5,0,19,0s19,8.5,19,19C38,34.2,21.1,50,19,50z M18.8,48L18.8,48L18.8,48z
		 M19.2,48L19.2,48L19.2,48z M19,2C9.6,2,2,9.6,2,19c0,13.5,14.2,27.6,17,28.9c2.4-1.4,17-15.2,17-28.9C36,9.6,28.4,2,19,2z"/>
</g>
<g>
	<path class="st1" d="M22.3,17.6l-6.7-5.8L9,17.6v9.2h5.8v-3.3h1.7v3.3h5.8v-4.2h5v4.2H29v-9.2H22.3z M14,21.7h-2.5v-1.7H14V21.7z
		 M14,18.4v-1.7h3.3v1.7H14z M19.8,21.7h-2.5v-1.7h2.5V21.7z"/>
	<polygon class="st1" points="12.3,12.4 12.3,10.1 10.7,10.1 10.7,13.9 	"/>
	<polygon class="st1" points="28,13.4 20.1,13.4 23,15.9 29,15.9 	"/>
</g>
</svg>
