<?xml version="1.0" encoding="utf-8"?>
<!-- Generator: Adobe Illustrator 24.0.1, SVG Export Plug-In . SVG Version: 6.00 Build 0)  -->
<svg version="1.1" id="Слой_1" xmlns="http://www.w3.org/2000/svg" xmlns:xlink="http://www.w3.org/1999/xlink" x="0px" y="0px"
	 viewBox="0 0 38 50" style="enable-background:new 0 0 38 50;" xml:space="preserve">
<style type="text/css">
	.st0{fill:#E3072B;}
	.st1{fill:#FFFFFF;}
</style>
<g id="XMLID_12_">
	<path class="st0" d="M19,1C9.1,1,1,9.1,1,19c0,15,16.4,30,18,30c1.2,0,18-15,18-30C37,9.1,28.9,1,19,1z"/>
	<path class="st1" d="M19,50C16.4,50,0,34.3,0,19C0,8.5,8.5,0,19,0s19,8.5,19,19C38,34.2,21.1,50,19,50z M18.8,48L18.8,48L18.8,48z
		 M19.2,48L19.2,48L19.2,48z M19,2C9.6,2,2,9.6,2,19c0,13.5,14.2,27.6,17,28.9c2.4-1.4,17-15.2,17-28.9C36,9.6,28.4,2,19,2z"/>
</g>
<g>
	<path class="st1" d="M15.2,21.8h2.1v4.7h1.3V12.7l-4.4-4.3l-4.4,4.3v13.8h5.3V21.8z M15.2,13.8h2.1v2.1h-2.1V13.8z M15.2,17.8h2.1
		v2.1h-2.1V17.8z M13.3,23.9h-2.1v-2.1h2.1V23.9z M13.3,19.9h-2.1v-2.1h2.1V19.9z M13.3,15.9h-2.1v-2.1h2.1V15.9z"/>
	<path class="st1" d="M23.8,8.4l-4.4,4.3v13.8h5.3v-4.7h2.1v4.7h1.3V12.7L23.8,8.4z M22.8,23.9h-2.1v-2.1h2.1V23.9z M22.8,19.9h-2.1
		v-2.1h2.1V19.9z M22.8,15.9h-2.1v-2.1h2.1V15.9z M26.8,19.9h-2.1v-2.1h2.1V19.9z M26.8,15.9h-2.1v-2.1h2.1V15.9z"/>
	<rect x="9.9" y="27.2" class="st1" width="18.3" height="1.2"/>
</g>
</svg>
