<?xml version="1.0" encoding="utf-8"?>
<!-- Generator: Adobe Illustrator 24.0.1, SVG Export Plug-In . SVG Version: 6.00 Build 0)  -->
<svg version="1.1" id="Слой_1" xmlns="http://www.w3.org/2000/svg" xmlns:xlink="http://www.w3.org/1999/xlink" x="0px" y="0px"
	 viewBox="0 0 38 50" style="enable-background:new 0 0 38 50;" xml:space="preserve">
<style type="text/css">
	.st0{fill:#E3072B;}
	.st1{fill:#FFFFFF;}
</style>
<g id="XMLID_12_">
	<path class="st0" d="M19,1C9.1,1,1,9.1,1,19c0,15,16.4,30,18,30c1.2,0,18-15,18-30C37,9.1,28.9,1,19,1z"/>
	<path class="st1" d="M19,50C16.4,50,0,34.3,0,19C0,8.5,8.5,0,19,0s19,8.5,19,19C38,34.2,21.1,50,19,50z M18.8,48L18.8,48L18.8,48z
		 M19.2,48L19.2,48L19.2,48z M19,2C9.6,2,2,9.6,2,19c0,13.5,14.2,27.6,17,28.9c2.4-1.4,17-15.2,17-28.9C36,9.6,28.4,2,19,2z"/>
</g>
<g>
	<g>
		<path class="st1" d="M27.7,11.6l-10.6-0.5l0.2,3.6l7.9-0.3v4c0,0.2,0.2,0.4,0.4,0.4c0.6,0,1.1,0.5,1.1,1.1S26.2,21,25.6,21
			s-1.1-0.5-1.1-1.1c0-0.2-0.2-0.4-0.4-0.4s-0.4,0.2-0.4,0.4c0,1,0.8,1.9,1.9,1.9s1.9-0.8,1.9-1.9c0-0.9-0.6-1.7-1.5-1.8v-3.7
			l1.7-0.1c0.7,0,1.3-0.6,1.3-1.4C29,12.2,28.4,11.6,27.7,11.6z"/>
	</g>
	<g>
		<path class="st1" d="M12.4,10.9l-1,0c-0.1,0-0.2,0-0.3,0.1C11,11.1,11,11.2,11,11.3v3.4c0,0.1,0,0.2,0.1,0.3
			c0.1,0.1,0.2,0.1,0.3,0.1h0l0.8,0L12.4,10.9z"/>
	</g>
	<g>
		<path class="st1" d="M16.2,9.8c0-0.2-0.2-0.3-0.4-0.3h-2.2c-0.2,0-0.4,0.2-0.4,0.3L12.1,27c0,0.1,0,0.2,0.1,0.3
			c0.1,0.1,0.2,0.1,0.3,0.1H17c0,0,0,0,0,0c0.2,0,0.4-0.2,0.4-0.4c0,0,0-0.1,0-0.1L16.2,9.8z"/>
	</g>
</g>
</svg>
