<?xml version="1.0" encoding="utf-8"?>
<!-- Generator: Adobe Illustrator 24.0.1, SVG Export Plug-In . SVG Version: 6.00 Build 0)  -->
<svg version="1.1" id="Слой_1" xmlns="http://www.w3.org/2000/svg" xmlns:xlink="http://www.w3.org/1999/xlink" x="0px" y="0px"
	 viewBox="0 0 38 50" style="enable-background:new 0 0 38 50;" xml:space="preserve">
<style type="text/css">
	.st0{fill:#E3072B;}
	.st1{fill:#FFFFFF;}
</style>
<g id="XMLID_12_">
	<path class="st0" d="M19,1C9.1,1,1,9.1,1,19c0,15,16.4,30,18,30c1.2,0,18-15,18-30C37,9.1,28.9,1,19,1z"/>
	<path class="st1" d="M19,50C16.4,50,0,34.3,0,19C0,8.5,8.5,0,19,0s19,8.5,19,19C38,34.2,21.1,50,19,50z M18.8,48L18.8,48L18.8,48z
		 M19.2,48L19.2,48L19.2,48z M19,2C9.6,2,2,9.6,2,19c0,13.5,14.2,27.6,17,28.9c2.4-1.4,17-15.2,17-28.9C36,9.6,28.4,2,19,2z"/>
</g>
<g>
	<path class="st1" d="M18.6,18.4V14h-5.2c0,0,0,0.1,0,0.1v4.3L18.6,18.4L18.6,18.4z"/>
	<path class="st1" d="M19.3,18.4h5.4v-4.3c0,0,0-0.1,0-0.1h-5.4V18.4z"/>
	<path class="st1" d="M19.3,13.2h5.3c-0.4-2.6-2.6-4.7-5.3-4.8V13.2z"/>
	<rect x="13.3" y="19.1" class="st1" width="5.2" height="4.2"/>
	<rect x="19.3" y="19.1" class="st1" width="5.4" height="4.2"/>
	<rect x="13.3" y="24" class="st1" width="5.2" height="4.4"/>
	<path class="st1" d="M18.6,13.2V8.4c-2.6,0.2-4.8,2.2-5.2,4.8H18.6z"/>
	<rect x="19.3" y="24" class="st1" width="5.4" height="4.4"/>
</g>
</svg>
