<?xml version="1.0" encoding="utf-8"?>
<!-- Generator: Adobe Illustrator 24.0.1, SVG Export Plug-In . SVG Version: 6.00 Build 0)  -->
<svg version="1.1" id="Слой_1" xmlns="http://www.w3.org/2000/svg" xmlns:xlink="http://www.w3.org/1999/xlink" x="0px" y="0px"
	 viewBox="0 0 38 50" style="enable-background:new 0 0 38 50;" xml:space="preserve">
<style type="text/css">
	.st0{fill:#E3072B;}
	.st1{fill:#FFFFFF;}
</style>
<g id="XMLID_12_">
	<path class="st0" d="M19,1C9.1,1,1,9.1,1,19c0,15,16.4,30,18,30c1.2,0,18-15,18-30C37,9.1,28.9,1,19,1z"/>
	<path class="st1" d="M19,50C16.4,50,0,34.3,0,19C0,8.5,8.5,0,19,0s19,8.5,19,19C38,34.2,21.1,50,19,50z M18.8,48L18.8,48L18.8,48z
		 M19.2,48L19.2,48L19.2,48z M19,2C9.6,2,2,9.6,2,19c0,13.5,14.2,27.6,17,28.9c2.4-1.4,17-15.2,17-28.9C36,9.6,28.4,2,19,2z"/>
</g>
<g transform="translate(0,-952.36218)">
	<path class="st1" d="M16.5,963.3l-1.2,2.5h-3.5c-1,0-1.8,0.8-1.8,1.8v9c0,1,0.8,1.8,1.8,1.8h14.5c1,0,1.8-0.8,1.8-1.8v-9
		c0-1-0.8-1.8-1.8-1.8h-3.5l-1.2-2.5H16.5z M19,967.8c2.3,0,4.2,1.9,4.2,4.2s-1.9,4.2-4.2,4.2c-2.3,0-4.2-1.9-4.2-4.2
		C14.8,969.7,16.7,967.8,19,967.8z M19,969.3c-1.5,0-2.8,1.2-2.8,2.8s1.2,2.8,2.8,2.8c1.5,0,2.8-1.2,2.8-2.8S20.5,969.3,19,969.3z"
		/>
</g>
</svg>
