<?xml version="1.0" encoding="utf-8"?>
<!-- Generator: Adobe Illustrator 24.0.1, SVG Export Plug-In . SVG Version: 6.00 Build 0)  -->
<svg version="1.1" id="Слой_1" xmlns="http://www.w3.org/2000/svg" xmlns:xlink="http://www.w3.org/1999/xlink" x="0px" y="0px"
	 viewBox="0 0 38 50" style="enable-background:new 0 0 38 50;" xml:space="preserve">
<style type="text/css">
	.st0{fill:#E3072B;}
	.st1{fill:#FFFFFF;}
</style>
<g id="XMLID_12_">
	<path class="st0" d="M19,1C9.1,1,1,9.1,1,19c0,15,16.4,30,18,30c1.2,0,18-15,18-30C37,9.1,28.9,1,19,1z"/>
	<path class="st1" d="M19,50C16.4,50,0,34.3,0,19C0,8.5,8.5,0,19,0s19,8.5,19,19C38,34.2,21.1,50,19,50z M18.8,48L18.8,48L18.8,48z
		 M19.2,48L19.2,48L19.2,48z M19,2C9.6,2,2,9.6,2,19c0,13.5,14.2,27.6,17,28.9c2.4-1.4,17-15.2,17-28.9C36,9.6,28.4,2,19,2z"/>
</g>
<g>
	<path class="st1" d="M18.6,10.6c4,0.1,7.1,1.3,9.8,3.8c0.7,0.7,0.8,1.7,0.2,2.4c-0.6,0.7-1.7,0.8-2.4,0c-1.4-1.3-2.9-2.2-4.7-2.6
		c-3.5-0.8-6.6,0-9.3,2.3c-0.4,0.3-0.8,0.6-1.2,0.7c-0.7,0.2-1.4-0.2-1.7-0.8c-0.3-0.7-0.2-1.5,0.4-2c1.2-1.2,2.7-2.2,4.3-2.8
		c0.8-0.3,1.6-0.6,2.5-0.7C17.2,10.7,18.1,10.7,18.6,10.6z"/>
	<path class="st1" d="M19,16.3c2.2,0.1,4.1,0.8,5.6,2.4c0.8,0.8,0.8,1.8,0.1,2.5s-1.7,0.7-2.5-0.1c-1.3-1.3-2.8-1.7-4.6-1.2
		c-0.8,0.2-1.4,0.8-2.1,1.3c-0.5,0.4-1.1,0.6-1.7,0.4c-0.6-0.2-1-0.7-1.1-1.3c-0.1-0.6,0.1-1.1,0.5-1.5C14.9,17.1,16.8,16.3,19,16.3
		z"/>
	<path class="st1" d="M19,26.2c-1.1,0-2-0.9-2-2c0-1.1,0.9-2,2-2c1.1,0,2,0.9,2,2c0,0,0,0,0,0C21,25.3,20.1,26.2,19,26.2z"/>
</g>
</svg>
