<?xml version="1.0" encoding="utf-8"?>
<!-- Generator: Adobe Illustrator 24.0.1, SVG Export Plug-In . SVG Version: 6.00 Build 0)  -->
<svg version="1.1" id="Слой_1" xmlns="http://www.w3.org/2000/svg" xmlns:xlink="http://www.w3.org/1999/xlink" x="0px" y="0px"
	 viewBox="0 0 38 50" style="enable-background:new 0 0 38 50;" xml:space="preserve">
<style type="text/css">
	.st0{fill:#E3072B;}
	.st1{fill:#FFFFFF;}
</style>
<g id="XMLID_12_">
	<path class="st0" d="M19,1C9.1,1,1,9.1,1,19c0,15,16.4,30,18,30c1.2,0,18-15,18-30C37,9.1,28.9,1,19,1z"/>
	<path class="st1" d="M19,50C16.4,50,0,34.3,0,19C0,8.5,8.5,0,19,0s19,8.5,19,19C38,34.2,21.1,50,19,50z M18.8,48L18.8,48L18.8,48z
		 M19.2,48L19.2,48L19.2,48z M19,2C9.6,2,2,9.6,2,19c0,13.5,14.2,27.6,17,28.9c2.4-1.4,17-15.2,17-28.9C36,9.6,28.4,2,19,2z"/>
</g>
<g>
	<path class="st1" d="M22.6,15.5l-2.1,3.4c2.1,1.8,3.9,2.7,4.5,2.2C25.6,20.5,24.6,18.1,22.6,15.5z"/>
	<path class="st1" d="M14.5,9.6c-0.6,0.6,0.1,2.4,1.7,4.7l3.6-1.7C17.4,10.2,15.2,8.9,14.5,9.6z"/>
	<path class="st1" d="M22.4,12.1L22.4,12.1l-2.1,1l-3.7,1.8c0.5,0.6,1,1.2,1.5,1.9c0.6,0.6,1.1,1.2,1.7,1.7l2.2-3.5l1.2-1.9l0,0
		C22.9,12.8,22.6,12.4,22.4,12.1z"/>
	<path class="st1" d="M24.5,9.5c-0.8,0-1.6,0.6-1.6,1.5c0,0.3,0,0.5,0.2,0.7c0.1,0.3,0.3,0.5,0.6,0.6c0.2,0.1,0.5,0.2,0.7,0.2
		c0.8,0,1.6-0.6,1.6-1.5C26,10.3,25.4,9.6,24.5,9.5z"/>
	<path class="st1" d="M15.3,22.5L15.3,22.5l-2.9,4.9h8.4l-1.9-3.7c-0.2,0-0.4,0-0.5-0.1C17.2,23.5,16.2,23.1,15.3,22.5z"/>
	<path class="st1" d="M20.1,19.6L19.4,19l0,0L19,18.6l0,0c-0.4-0.4-0.9-0.9-1.3-1.4c-0.4-0.5-0.8-1-1.2-1.4l0,0l-0.4-0.5l0,0
		l-0.6-0.7h0c-0.9-1.2-1.8-2.8-2-4c-2.2,2.9-2.2,7.1,0.4,9.9c0.5,0.5,1.1,1,1.6,1.4c0.9,0.5,1.8,0.9,2.8,1.1c1.8,0.3,3.8,0,5.4-1
		C22.6,21.6,21.1,20.4,20.1,19.6L20.1,19.6z"/>
</g>
</svg>
