<?xml version="1.0" encoding="utf-8"?>
<!-- Generator: Adobe Illustrator 24.0.1, SVG Export Plug-In . SVG Version: 6.00 Build 0)  -->
<svg version="1.1" id="Слой_1" xmlns="http://www.w3.org/2000/svg" xmlns:xlink="http://www.w3.org/1999/xlink" x="0px" y="0px"
	 viewBox="0 0 38 50" style="enable-background:new 0 0 38 50;" xml:space="preserve">
<style type="text/css">
	.st0{fill:#E3072B;}
	.st1{fill:#FFFFFF;}
</style>
<g id="XMLID_12_">
	<path class="st0" d="M19,1C9.1,1,1,9.1,1,19c0,15,16.4,30,18,30c1.2,0,18-15,18-30C37,9.1,28.9,1,19,1z"/>
	<path class="st1" d="M19,50C16.4,50,0,34.3,0,19C0,8.5,8.5,0,19,0s19,8.5,19,19C38,34.2,21.1,50,19,50z M18.8,48L18.8,48L18.8,48z
		 M19.2,48L19.2,48L19.2,48z M19,2C9.6,2,2,9.6,2,19c0,13.5,14.2,27.6,17,28.9c2.4-1.4,17-15.2,17-28.9C36,9.6,28.4,2,19,2z"/>
</g>
<path class="st1" d="M28.7,19.4c-0.7-0.2-2.6-0.6-3.7-0.9v-2.2h0.9c0.2,0,0.4-0.2,0.4-0.4v-0.2c0-0.2-0.1-0.4-0.2-0.5L24.3,14v-1.6
	c0-0.1-0.1-0.1-0.1-0.1h-0.8c-0.1,0-0.1,0.1-0.1,0.1v0.8l-1.9-1.5c-0.2-0.2-0.5-0.3-0.7-0.3h-3.1c-0.3,0-0.5,0.1-0.7,0.3L12,15.3
	c-0.1,0.1-0.2,0.3-0.2,0.5V16c0,0.2,0.2,0.4,0.4,0.4H13v2.2c-1.2,0.3-3.1,0.7-3.8,0.9c-0.1,0-0.3,0.2-0.3,0.3v0.6
	c0,0.2,0.1,0.4,0.4,0.4h0.9V25c0,0.3,0.2,0.5,0.5,0.5h7.1v-3.6c0-0.1,0.1-0.3,0.3-0.3h1.8c0.1,0,0.3,0.1,0.3,0.3v3.6h7.1
	c0.3,0,0.5-0.2,0.5-0.5v-4.3h0.9c0.2,0,0.4-0.1,0.4-0.4v-0.6C29,19.6,28.9,19.5,28.7,19.4z M15.2,22.9c0,0.2-0.1,0.3-0.3,0.3h-1.7
	c-0.2,0-0.3-0.1-0.3-0.3v-1c0-0.2,0.1-0.3,0.3-0.3h1.7c0.2,0,0.3,0.1,0.3,0.3V22.9z M17.9,17.5c0,0.2-0.1,0.3-0.3,0.3h-1.7
	c-0.2,0-0.3-0.1-0.3-0.3v-1c0-0.2,0.1-0.3,0.3-0.3h1.7c0.2,0,0.3,0.1,0.3,0.3L17.9,17.5L17.9,17.5z M22.5,17.5
	c0,0.2-0.1,0.3-0.3,0.3h-1.7c-0.2,0-0.3-0.1-0.3-0.3v-1c0-0.2,0.1-0.3,0.3-0.3h1.7c0.2,0,0.3,0.1,0.3,0.3V17.5z M25.1,22.9
	c0,0.2-0.1,0.3-0.3,0.3h-1.7c-0.2,0-0.3-0.1-0.3-0.3v-1c0-0.2,0.1-0.3,0.3-0.3h1.7c0.2,0,0.3,0.1,0.3,0.3V22.9z"/>
</svg>
