<?xml version="1.0" encoding="utf-8"?>
<!-- Generator: Adobe Illustrator 24.0.1, SVG Export Plug-In . SVG Version: 6.00 Build 0)  -->
<svg version="1.1" id="Слой_1" xmlns="http://www.w3.org/2000/svg" xmlns:xlink="http://www.w3.org/1999/xlink" x="0px" y="0px"
	 viewBox="0 0 38 50" style="enable-background:new 0 0 38 50;" xml:space="preserve">
<style type="text/css">
	.st0{fill:#E3072B;}
	.st1{fill:#FFFFFF;}
</style>
<g id="XMLID_12_">
	<path class="st0" d="M19,1C9.1,1,1,9.1,1,19c0,15,16.4,30,18,30c1.2,0,18-15,18-30C37,9.1,28.9,1,19,1z"/>
	<path class="st1" d="M19,50C16.4,50,0,34.3,0,19C0,8.5,8.5,0,19,0s19,8.5,19,19C38,34.2,21.1,50,19,50z M18.8,48L18.8,48L18.8,48z
		 M19.2,48L19.2,48L19.2,48z M19,2C9.6,2,2,9.6,2,19c0,13.5,14.2,27.6,17,28.9c2.4-1.4,17-15.2,17-28.9C36,9.6,28.4,2,19,2z"/>
</g>
<g>
	<path class="st1" d="M23.6,20.9H11.8c-0.1,0-0.2,0.1-0.2,0.2V22h-0.1c-0.3,0-0.5,0.2-0.5,0.5v5.9h1.9v-3.5h2.1v3.5h1.6v-3.5h2.1
		v3.5h1.6v-3.5v-0.1h2.1v0.1v3.5h1.6v-3.5h2.1v3.5h1.9v-5.9c0-0.3-0.2-0.5-0.5-0.5h-0.1v-0.9c0-0.1-0.1-0.2-0.2-0.2h-0.7v-2.6h-3
		L23.6,20.9L23.6,20.9z M15.1,23.9h-2.1V23h2.1V23.9z M18.8,23.9h-2.1V23h2.1V23.9z M22.5,23.9h-2.1V23h2.1V23.9L22.5,23.9z
		 M26.2,23.9L26.2,23.9l-2.1,0v0V23h2.1V23.9L26.2,23.9z"/>
	<path class="st1" d="M22.6,14.2c0.1,0.2,0.3,0.4,0.5,0.4h0.6V16h3v-1.4h0.6c0.2,0,0.4-0.1,0.5-0.4l0.6-1.9c0-0.1-0.1-0.3-0.2-0.3
		h-0.9v-0.9c0-0.1-0.1-0.2-0.2-0.2h-1.4V9.2h0.8c0.3,0,0.6-0.3,0.6-0.6V8.4h-3.7v0.2c0,0.3,0.3,0.6,0.6,0.6h0.8v1.7h-1.4
		c-0.1,0-0.2,0.1-0.2,0.2V12h-0.9c-0.2,0-0.3,0.2-0.2,0.3L22.6,14.2z M27.3,12.7c0.1,0,0.2,0.1,0.1,0.2l-0.3,0.8
		c0,0.1-0.1,0.1-0.1,0.1h-1.3c-0.1,0-0.2-0.1-0.2-0.2v-0.8c0-0.1,0.1-0.2,0.2-0.2L27.3,12.7L27.3,12.7z M23.1,12.7h1.5
		c0.1,0,0.2,0.1,0.2,0.2v0.8c0,0.1-0.1,0.2-0.2,0.2h-1.3c-0.1,0-0.1,0-0.1-0.1l-0.3-0.8C22.9,12.8,23,12.7,23.1,12.7z"/>
	<polygon class="st1" points="26.7,17.5 26.7,16.6 23.6,16.6 23.6,17.5 23.6,17.6 26.7,17.6 	"/>
	<path class="st1" d="M9.7,10.6c0,0.1,0.1,0.1,0.2,0.2l2.7,1.9l0.8,4.6c0,0.2,0.1,0.3,0.3,0.5l0.5,0.4c0.1,0.1,0.3,0,0.3-0.1l0-4
		l2.7,1.9c0.6,0.4,1.4,0.5,2.1,0l1-0.7c0.1-0.1,0.1-0.2,0-0.3l-0.1-0.1c-0.2-0.2-0.5-0.3-0.8-0.3l-1.2,0.2l-5.5-4.7
		c-0.5-0.5-1.2-0.7-1.9-0.7c-0.2,0-0.5,0-0.7,0.1C9.6,9.7,9.4,10.2,9.7,10.6C9.7,10.6,9.7,10.6,9.7,10.6z"/>
	<path class="st1" d="M15.8,12.2c0.2,0.1,0.4,0.2,0.6,0.2l2.9-0.1c0.1,0,0.2-0.2,0.1-0.3l-0.4-0.3c-0.1-0.1-0.3-0.1-0.4-0.1L15,11.1
		c-0.1,0-0.2,0.2-0.1,0.3L15.8,12.2z"/>
</g>
</svg>
