<?xml version="1.0" encoding="utf-8"?>
<!-- Generator: Adobe Illustrator 24.0.1, SVG Export Plug-In . SVG Version: 6.00 Build 0)  -->
<svg version="1.1" id="Слой_1" xmlns="http://www.w3.org/2000/svg" xmlns:xlink="http://www.w3.org/1999/xlink" x="0px" y="0px"
	 viewBox="0 0 38 50" style="enable-background:new 0 0 38 50;" xml:space="preserve">
<style type="text/css">
	.st0{fill:#E3072B;}
	.st1{fill:#FFFFFF;}
</style>
<g id="XMLID_12_">
	<path class="st0" d="M19,1C9.1,1,1,9.1,1,19c0,15,16.4,30,18,30c1.2,0,18-15,18-30C37,9.1,28.9,1,19,1z"/>
	<path class="st1" d="M19,50C16.4,50,0,34.3,0,19C0,8.5,8.5,0,19,0s19,8.5,19,19C38,34.2,21.1,50,19,50z M18.8,48L18.8,48L18.8,48z
		 M19.2,48L19.2,48L19.2,48z M19,2C9.6,2,2,9.6,2,19c0,13.5,14.2,27.6,17,28.9c2.4-1.4,17-15.2,17-28.9C36,9.6,28.4,2,19,2z"/>
</g>
<g>
	<path class="st1" d="M21.1,27.9h3.4c0.2,0,0.4-0.2,0.4-0.4V9.8c0-0.2-0.2-0.4-0.4-0.4H13.6c0,0,0,0,0,0c-0.2,0-0.3,0.2-0.3,0.4
		v17.8c0,0.2,0.2,0.4,0.4,0.4h3.4c0.2,0,0.4-0.2,0.4-0.4v-1.6c0-0.9,0.8-1.7,1.7-1.7c0.9,0,1.7,0.8,1.7,1.7v1.6
		C20.7,27.7,20.9,27.9,21.1,27.9z M17.4,22.4c0,0.2-0.2,0.4-0.4,0.4h-1.1c-0.2,0-0.4-0.2-0.4-0.4v-1.1c0-0.2,0.1-0.3,0.3-0.4
		c0,0,0,0,0,0H17c0.2,0,0.4,0.2,0.4,0.4V22.4z M17.4,17.7c0,0.2-0.2,0.4-0.4,0.4h-1.1c-0.2,0-0.4-0.2-0.4-0.4v-1.1
		c0-0.2,0.1-0.3,0.3-0.4c0,0,0,0,0,0H17c0.2,0,0.4,0.2,0.4,0.4V17.7z M17.4,13c0,0.2-0.2,0.4-0.4,0.4h-1.1c-0.2,0-0.4-0.2-0.4-0.4
		v-1.1c0-0.2,0.1-0.3,0.3-0.4c0,0,0,0,0,0H17c0.2,0,0.4,0.2,0.4,0.4V13z M20.6,11.8c0-0.2,0.1-0.3,0.3-0.4c0,0,0,0,0,0h1.1
		c0.2,0,0.4,0.2,0.4,0.4V13c0,0.2-0.2,0.4-0.4,0.4H21c-0.2,0-0.4-0.2-0.4-0.4V11.8z M20.6,16.5c0-0.2,0.1-0.3,0.3-0.4c0,0,0,0,0,0
		h1.1c0.2,0,0.4,0.2,0.4,0.4v1.1c0,0.2-0.2,0.4-0.4,0.4H21c-0.2,0-0.4-0.2-0.4-0.4V16.5z M20.6,22.4v-1.1c0-0.2,0.1-0.3,0.3-0.4
		c0,0,0,0,0,0h1.1c0.2,0,0.4,0.2,0.4,0.4v1.1c0,0.2-0.2,0.4-0.4,0.4H21C20.8,22.7,20.6,22.6,20.6,22.4z"/>
	<path class="st1" d="M26.3,29.1c0-0.2-0.2-0.4-0.3-0.4c0,0,0,0,0,0H12.1c-0.2,0-0.4,0.2-0.4,0.3c0,0.2,0.2,0.4,0.3,0.4c0,0,0,0,0,0
		h13.8C26.1,29.4,26.3,29.2,26.3,29.1z"/>
</g>
</svg>
