<?xml version="1.0" encoding="utf-8"?>
<!-- Generator: Adobe Illustrator 24.0.1, SVG Export Plug-In . SVG Version: 6.00 Build 0)  -->
<svg version="1.1" id="Слой_1" xmlns="http://www.w3.org/2000/svg" xmlns:xlink="http://www.w3.org/1999/xlink" x="0px" y="0px"
	 viewBox="0 0 38 50" style="enable-background:new 0 0 38 50;" xml:space="preserve">
<style type="text/css">
	.st0{fill:#E3072B;}
	.st1{fill:#FFFFFF;}
</style>
<g id="XMLID_12_">
	<path class="st0" d="M19,1C9.1,1,1,9.1,1,19c0,15,16.4,30,18,30c1.2,0,18-15,18-30C37,9.1,28.9,1,19,1z"/>
	<path class="st1" d="M19,50C16.4,50,0,34.3,0,19C0,8.5,8.5,0,19,0s19,8.5,19,19C38,34.2,21.1,50,19,50z M18.8,48L18.8,48L18.8,48z
		 M19.2,48L19.2,48L19.2,48z M19,2C9.6,2,2,9.6,2,19c0,13.5,14.2,27.6,17,28.9c2.4-1.4,17-15.2,17-28.9C36,9.6,28.4,2,19,2z"/>
</g>
<g>
	<g transform="translate(-122.000000, -490.000000)">
		<g transform="translate(122.000000, 490.000000)">
			<path class="st1" d="M27.1,24.7h-6.1l3.1-2.6L27.1,24.7z M22.7,12.6l0.6,0.8H22L22.7,12.6z M20,12.6l0.6,0.8h-1.3L20,12.6z
				 M17.3,12.6l0.6,0.8h-1.3L17.3,12.6z M14.5,15.7l0.8-0.6v1.3L14.5,15.7z M14.5,18.4l0.8-0.6V19L14.5,18.4z M14.5,21.1l0.8-0.6
				v1.3L14.5,21.1z M15.3,24.4l-0.8-0.6l0.8-0.6V24.4z M14.5,26.6l0.8-0.8v1.5L14.5,26.6z M13.5,26.6l-0.8,0.8v-1.5L13.5,26.6z
				 M12.7,12.7l0.8,0.5l-0.8,0.5v0V12.7z M15.3,10.4v1l-0.8-0.5L15.3,10.4L15.3,10.4z M15.3,13.7L15.3,13.7l-0.8-0.5l0.8-0.5V13.7z
				 M12.7,16.4v-1.3l0.8,0.6L12.7,16.4z M12.7,19v-1.3l0.8,0.6L12.7,19z M12.7,21.7v-1.3l0.8,0.6L12.7,21.7z M12.7,24.4v-1.3
				l0.8,0.6L12.7,24.4z M17.3,11.5l-0.6-0.8H18L17.3,11.5z M20,11.5l-0.6-0.8h1.3L20,11.5z M22.7,11.5L22,10.7h1.3L22.7,11.5z
				 M24.6,10.7h1.1l-0.5,0.8L24.6,10.7z M25.2,12.6l0.5,0.8h-1.1L25.2,12.6z M12.7,10.4l0.8,0.5l-0.8,0.5V10.4L12.7,10.4z
				 M28.3,25.1c-0.1-0.2-0.2-0.4-0.4-0.5c-0.4-0.4-0.9-0.7-1.3-1.1c-0.6-0.5-1.3-1.1-1.9-1.6c0.4-0.2,0.6-0.7,0.6-1.1
				c0-0.6-0.4-1.1-1-1.3v-0.4h0.3c0.2,0,0.3-0.1,0.3-0.3v-0.4c0-0.6-0.2-1.3-0.7-1.7v-2.5H28c0.1,0,0.2-0.1,0.3-0.2
				c0.1-0.1,0.1-0.2,0-0.3c-0.5-0.9-0.9-1.9-1.4-2.8c-0.1-0.2-0.2-0.4-0.3-0.6c-0.1-0.2-0.5-0.1-0.7-0.1h-1.1h-3.3h-3.4h-2H16V9.4
				c0-0.1-0.1-0.2-0.1-0.3l-1-0.7c-0.1,0-0.1-0.1-0.2-0.1h-1.3c-0.1,0-0.1,0-0.2,0.1l-1,0.7C12.1,9.2,12,9.3,12,9.4v0.7h-1
				c-0.2,0-0.3,0.1-0.3,0.3v3.3c0,0.2,0.1,0.3,0.3,0.3h1v13.7h-2c-0.2,0-0.3,0.1-0.3,0.3c0,0.2,0.1,0.3,0.3,0.3h2.3h3.3h2
				c0.2,0,0.3-0.1,0.3-0.3c0-0.2-0.1-0.3-0.3-0.3H16V14.1h7.7v2.5c-0.4,0.5-0.7,1.1-0.7,1.7v0.4c0,0.2,0.1,0.3,0.3,0.3h0.3v0.7
				c0,0.2,0.1,0.3,0.3,0.3c0.4,0,0.7,0.3,0.7,0.7s-0.3,0.7-0.7,0.7c-0.4,0-0.7-0.3-0.7-0.7c0-0.2-0.1-0.3-0.3-0.3
				c-0.2,0-0.3,0.1-0.3,0.3c0,0.5,0.3,0.9,0.6,1.1c-0.7,0.6-1.5,1.2-2.2,1.9c-0.2,0.2-0.5,0.4-0.7,0.6c-0.2,0.2-0.5,0.3-0.6,0.5
				c-0.1,0.2-0.1,0.4-0.1,0.6v0.7v1c0,0.2,0.1,0.3,0.3,0.3h8c0.2,0,0.3-0.1,0.3-0.3v-1C28.3,25.8,28.4,25.4,28.3,25.1L28.3,25.1
				L28.3,25.1z"/>
		</g>
	</g>
</g>
</svg>
